<svg width="560" height="258" fill="none" xmlns="http://www.w3.org/2000/svg"><path d="m542.682 52.956 3.04-.702c.112 1.136.568 2.071 1.37 2.806.802.758 1.805 1.136 3.007 1.136 3.275 0 4.912-1.737 4.912-5.212V48.68c-.401.78-1.036 1.414-1.904 1.904-.847.49-1.849.735-3.008.735-2.138 0-3.909-.724-5.312-2.172-1.381-1.47-2.072-3.34-2.072-5.613 0-2.205.691-4.054 2.072-5.546 1.381-1.515 3.152-2.272 5.312-2.272 2.451 0 4.099.846 4.945 2.539v-2.239h3.108v14.869c0 1.07-.145 2.06-.435 2.974a7.576 7.576 0 0 1-1.303 2.572c-.601.78-1.448 1.393-2.539 1.838-1.069.446-2.328.668-3.776.668-1.982 0-3.664-.568-5.045-1.704-1.381-1.114-2.172-2.54-2.372-4.276Zm7.885-4.277c1.359 0 2.462-.468 3.308-1.404.846-.957 1.27-2.205 1.27-3.742s-.424-2.773-1.27-3.709c-.846-.957-1.949-1.436-3.308-1.436-1.381 0-2.506.467-3.375 1.403-.846.936-1.269 2.183-1.269 3.742 0 1.582.412 2.84 1.236 3.776.846.913 1.983 1.37 3.408 1.37ZM528.23 42.798v9.289h-3.141V36.015h3.074v2.306c1.07-1.85 2.718-2.773 4.945-2.773 1.849 0 3.264.59 4.244 1.77 1.002 1.181 1.503 2.707 1.503 4.578v10.19h-3.14v-9.655c0-2.696-1.248-4.043-3.743-4.043-1.18 0-2.105.423-2.773 1.27-.646.823-.969 1.87-.969 3.14ZM509.276 48.278c.98 1.002 2.172 1.503 3.575 1.503 1.404 0 2.584-.5 3.542-1.503.98-1.025 1.47-2.44 1.47-4.244 0-1.782-.49-3.174-1.47-4.176-.958-1.025-2.138-1.537-3.542-1.537-1.403 0-2.595.512-3.575 1.537-.958 1.002-1.436 2.394-1.436 4.176 0 1.805.478 3.219 1.436 4.244Zm-2.339-10.325c1.56-1.626 3.531-2.439 5.914-2.439 2.384 0 4.344.813 5.881 2.44 1.559 1.603 2.339 3.63 2.339 6.08 0 2.473-.769 4.522-2.305 6.148-1.537 1.604-3.509 2.406-5.915 2.406-2.405 0-4.377-.802-5.914-2.406-1.537-1.626-2.305-3.675-2.305-6.148 0-2.45.768-4.477 2.305-6.08ZM502.784 35.848v3.342a9.685 9.685 0 0 0-1.37-.1c-2.94 0-4.41 1.648-4.41 4.944v8.053h-3.141V36.015h3.074v2.807c.98-2.05 2.584-3.074 4.811-3.074.357 0 .702.033 1.036.1ZM486.522 30.937v5.078h3.475v2.84h-3.475v8.354c0 .757.167 1.314.501 1.67.357.357.936.535 1.738.535.467 0 .88-.045 1.236-.134v2.673c-.535.2-1.247.3-2.138.3-1.382 0-2.473-.4-3.275-1.202-.802-.802-1.203-1.927-1.203-3.375v-8.82h-3.074v-2.84h.869c.824 0 1.437-.224 1.838-.669.423-.468.635-1.07.635-1.804v-2.606h2.873ZM465.701 47.91l2.84-1.002a3.41 3.41 0 0 0 1.136 2.172c.646.556 1.515.835 2.606.835.847 0 1.515-.2 2.005-.602.49-.423.735-.935.735-1.537 0-1.069-.69-1.76-2.071-2.071l-2.74-.602c-1.248-.267-2.228-.801-2.94-1.603-.713-.802-1.07-1.771-1.07-2.907 0-1.381.557-2.573 1.671-3.575 1.136-1.003 2.484-1.504 4.043-1.504 1.025 0 1.938.156 2.74.468.802.29 1.425.68 1.871 1.17.445.49.779.946 1.002 1.37.223.422.39.857.501 1.302l-2.773 1.036a3.02 3.02 0 0 0-.234-.768 3.808 3.808 0 0 0-.534-.87c-.223-.311-.557-.556-1.003-.734-.445-.2-.969-.3-1.57-.3-.78 0-1.426.21-1.938.634-.49.423-.735.924-.735 1.503 0 1.025.612 1.671 1.838 1.938l2.606.568c1.425.312 2.517.891 3.274 1.738.78.824 1.17 1.838 1.17 3.04 0 1.27-.524 2.417-1.571 3.442-1.024 1.025-2.461 1.537-4.31 1.537-1.982 0-3.531-.49-4.644-1.47-1.114-1.003-1.749-2.072-1.905-3.208Z" fill="#06B6D4"/><path d="M463.017 43.867h-9.055v-2.74h9.055v2.74Z" fill="#A1A1AA"/><path d="M442.304 58.803h-3.441l4.009-8.487-6.916-14.3h3.609l5.011 11.092 4.812-11.093h3.375l-10.459 22.788ZM434.458 35.848v3.342a9.685 9.685 0 0 0-1.37-.1c-2.94 0-4.41 1.648-4.41 4.944v8.053h-3.141V36.015h3.074v2.807c.98-2.05 2.584-3.074 4.811-3.074.357 0 .702.033 1.036.1ZM407.045 47.776c0-1.38.446-2.483 1.337-3.307.891-.847 2.071-1.37 3.541-1.57l4.344-.636c.824-.11 1.236-.512 1.236-1.202 0-.847-.289-1.537-.868-2.072-.58-.535-1.448-.802-2.607-.802-1.069 0-1.915.3-2.539.902-.624.58-.991 1.359-1.103 2.34l-3.007-.703c.156-1.536.858-2.784 2.105-3.742 1.248-.98 2.74-1.47 4.478-1.47 2.272 0 3.953.557 5.045 1.67 1.091 1.092 1.637 2.495 1.637 4.21v8.053c0 .958.067 1.838.201 2.64h-3.074a13.163 13.163 0 0 1-.167-2.172c-.446.713-1.103 1.336-1.972 1.871-.846.535-1.915.802-3.207.802-1.582 0-2.874-.468-3.876-1.403-1.003-.958-1.504-2.094-1.504-3.409Zm5.814 2.172c1.403 0 2.528-.378 3.375-1.136.846-.757 1.269-1.96 1.269-3.608v-.735l-4.911.735c-.713.111-1.281.367-1.704.768-.424.401-.635.947-.635 1.637 0 .624.234 1.17.701 1.638.49.467 1.125.701 1.905.701ZM382.506 52.087h-3.107V36.015h3.007v2.139a4.834 4.834 0 0 1 2.072-1.938 6.194 6.194 0 0 1 2.806-.669c1.047 0 2.005.257 2.874.769.868.512 1.514 1.27 1.938 2.272 1.113-2.027 2.906-3.04 5.379-3.04 1.537 0 2.84.523 3.909 1.57 1.092 1.047 1.637 2.561 1.637 4.544v10.425h-3.107v-10.09c0-1.115-.289-2.006-.869-2.674-.556-.668-1.403-1.002-2.539-1.002-1.091 0-1.982.39-2.673 1.17-.69.757-1.036 1.714-1.036 2.873v9.723h-3.141v-10.09c0-1.115-.289-2.006-.868-2.674-.557-.668-1.404-1.002-2.54-1.002-1.113 0-2.016.378-2.706 1.136-.691.757-1.036 1.737-1.036 2.94v9.69ZM374.055 52.087h-3.107V36.015h3.107v16.072Zm-3.174-20.549a2.247 2.247 0 0 1-.635-1.604c0-.623.212-1.158.635-1.604.445-.445.98-.668 1.604-.668a2.19 2.19 0 0 1 1.604.668c.445.424.668.958.668 1.604 0 .624-.223 1.159-.668 1.604a2.249 2.249 0 0 1-1.604.635 2.245 2.245 0 0 1-1.604-.635ZM367.6 35.848v3.342a9.674 9.674 0 0 0-1.37-.1c-2.94 0-4.41 1.648-4.41 4.944v8.053h-3.141V36.015h3.074v2.807c.98-2.05 2.584-3.074 4.812-3.074.356 0 .701.033 1.035.1ZM341.98 58.435h-3.107v-22.42h3.041v2.506c.467-.846 1.169-1.537 2.105-2.071.935-.535 2.027-.802 3.274-.802 2.317 0 4.121.79 5.413 2.372 1.314 1.582 1.971 3.586 1.971 6.014 0 2.45-.679 4.478-2.038 6.081-1.336 1.604-3.152 2.406-5.446 2.406-1.181 0-2.228-.245-3.141-.735-.913-.49-1.604-1.114-2.072-1.871v8.52Zm9.49-14.4c0-1.627-.435-2.963-1.304-4.01-.846-1.07-1.993-1.604-3.441-1.604-1.426 0-2.584.535-3.475 1.604-.869 1.047-1.303 2.383-1.303 4.01 0 1.67.434 3.04 1.303 4.109.891 1.047 2.049 1.57 3.475 1.57 1.426 0 2.573-.523 3.441-1.57.869-1.07 1.304-2.44 1.304-4.11Z" fill="#A855F7"/><path d="M334.685 43.867h-9.054v-2.74h9.054v2.74Z" fill="#A1A1AA"/><path d="M309.028 44c0 1.694.412 3.075 1.237 4.144.846 1.07 2.004 1.604 3.474 1.604 1.404 0 2.529-.546 3.375-1.637.847-1.092 1.27-2.484 1.27-4.177 0-1.67-.412-3.018-1.236-4.043-.825-1.024-1.95-1.537-3.375-1.537-1.426 0-2.573.524-3.442 1.57-.868 1.047-1.303 2.406-1.303 4.077Zm9.389 5.915v-.267c-.423.824-1.069 1.514-1.938 2.071-.846.535-1.86.802-3.04.802-2.295 0-4.143-.802-5.547-2.406-1.381-1.626-2.071-3.664-2.071-6.114 0-2.339.712-4.322 2.138-5.947 1.426-1.649 3.252-2.473 5.48-2.473 1.314 0 2.383.267 3.207.802.825.512 1.393 1.147 1.704 1.904V27.896h3.108v21.217c0 1.092.055 2.083.167 2.974h-3.041a12.517 12.517 0 0 1-.167-2.172ZM291.536 42.798v9.289h-3.141V36.015h3.074v2.306c1.069-1.85 2.718-2.773 4.945-2.773 1.849 0 3.264.59 4.244 1.77 1.002 1.181 1.503 2.707 1.503 4.578v10.19h-3.141v-9.655c0-2.696-1.247-4.043-3.742-4.043-1.18 0-2.105.423-2.773 1.27-.646.823-.969 1.87-.969 3.14ZM280.062 50.149c-.423.802-1.069 1.414-1.938 1.837-.869.401-1.804.602-2.807.602-1.826 0-3.285-.602-4.377-1.804-1.091-1.225-1.637-2.774-1.637-4.645V36.015h3.141v9.657c0 1.202.289 2.194.869 2.973.601.78 1.525 1.17 2.773 1.17 1.247 0 2.194-.368 2.84-1.103.646-.757.969-1.76.969-3.007v-9.69h3.141v13.098c0 1.047.055 2.038.167 2.974h-3.007c-.089-.49-.134-1.136-.134-1.938ZM253.82 48.278c.98 1.002 2.172 1.503 3.575 1.503 1.404 0 2.584-.5 3.542-1.503.98-1.025 1.47-2.44 1.47-4.244 0-1.782-.49-3.174-1.47-4.176-.958-1.025-2.138-1.537-3.542-1.537-1.403 0-2.595.512-3.575 1.537-.958 1.002-1.436 2.394-1.436 4.176 0 1.805.478 3.219 1.436 4.244Zm-2.339-10.325c1.56-1.626 3.531-2.439 5.914-2.439 2.384 0 4.344.813 5.881 2.44 1.559 1.603 2.339 3.63 2.339 6.08 0 2.473-.769 4.522-2.306 6.148-1.537 1.604-3.508 2.406-5.914 2.406-2.405 0-4.377-.802-5.914-2.406-1.537-1.626-2.305-3.675-2.305-6.148 0-2.45.768-4.477 2.305-6.08ZM247.328 35.848v3.342a9.685 9.685 0 0 0-1.37-.1c-2.94 0-4.41 1.648-4.41 4.944v8.053h-3.141V36.015h3.074v2.807c.98-2.05 2.584-3.074 4.811-3.074.357 0 .702.033 1.036.1ZM217.921 52.956l3.04-.702c.112 1.136.568 2.071 1.37 2.806.802.758 1.805 1.136 3.007 1.136 3.275 0 4.912-1.737 4.912-5.212V48.68c-.401.78-1.036 1.414-1.904 1.904-.847.49-1.849.735-3.008.735-2.138 0-3.909-.724-5.312-2.172-1.381-1.47-2.072-3.34-2.072-5.613 0-2.205.691-4.054 2.072-5.546 1.381-1.515 3.152-2.272 5.312-2.272 2.451 0 4.099.846 4.945 2.539v-2.239h3.108v14.869c0 1.07-.145 2.06-.435 2.974a7.576 7.576 0 0 1-1.303 2.572c-.601.78-1.448 1.393-2.539 1.838-1.069.446-2.328.668-3.776.668-1.982 0-3.664-.568-5.045-1.704-1.381-1.114-2.172-2.54-2.372-4.276Zm7.885-4.277c1.359 0 2.462-.468 3.308-1.404.846-.957 1.27-2.205 1.27-3.742s-.424-2.773-1.27-3.709c-.846-.957-1.949-1.436-3.308-1.436-1.381 0-2.506.467-3.375 1.403-.846.936-1.269 2.183-1.269 3.742 0 1.582.412 2.84 1.236 3.776.847.913 1.983 1.37 3.408 1.37ZM216.785 36.015l-6.85 6.783 6.984 9.289h-3.943l-5.246-7.084-2.238 2.239v4.845h-3.108V27.896h3.108v15.236l6.949-7.117h4.344ZM191.415 38.421c-1.358 0-2.517.49-3.474 1.47-.936.98-1.404 2.361-1.404 4.143 0 1.76.468 3.141 1.404 4.144.957 1.002 2.127 1.503 3.508 1.503 1.336 0 2.35-.334 3.04-1.002.713-.669 1.192-1.437 1.437-2.306l2.773 1.203c-.445 1.337-1.292 2.506-2.539 3.508-1.225 1.003-2.796 1.504-4.711 1.504-2.339 0-4.277-.813-5.814-2.44-1.537-1.625-2.305-3.663-2.305-6.114 0-2.495.768-4.533 2.305-6.114 1.537-1.604 3.464-2.406 5.78-2.406 1.961 0 3.542.501 4.745 1.504 1.225 1.002 2.027 2.205 2.406 3.608l-2.84 1.203a5.071 5.071 0 0 0-1.404-2.406c-.69-.668-1.659-1.002-2.907-1.002ZM166.175 47.776c0-1.38.445-2.483 1.336-3.307.891-.847 2.072-1.37 3.542-1.57l4.343-.636c.825-.11 1.237-.512 1.237-1.202 0-.847-.29-1.537-.869-2.072-.579-.535-1.448-.802-2.606-.802-1.069 0-1.916.3-2.54.902-.623.58-.991 1.359-1.102 2.34l-3.007-.703c.156-1.536.857-2.784 2.105-3.742 1.247-.98 2.74-1.47 4.477-1.47 2.272 0 3.954.557 5.045 1.67 1.092 1.092 1.637 2.495 1.637 4.21v8.053c0 .958.067 1.838.201 2.64H176.9a13.272 13.272 0 0 1-.167-2.172c-.446.713-1.103 1.336-1.971 1.871-.847.535-1.916.802-3.208.802-1.582 0-2.873-.468-3.876-1.403-1.002-.958-1.503-2.094-1.503-3.409Zm5.813 2.172c1.404 0 2.529-.378 3.375-1.136.846-.757 1.27-1.96 1.27-3.608v-.735l-4.912.735c-.713.111-1.281.367-1.704.768-.423.401-.635.947-.635 1.637 0 .624.234 1.17.702 1.638.49.467 1.125.701 1.904.701ZM150.478 52.087h-3.107V27.896h3.107v10.391c.423-.78 1.092-1.425 2.005-1.938.936-.534 2.038-.801 3.308-.801 2.339 0 4.154.79 5.446 2.372 1.292 1.581 1.938 3.597 1.938 6.047 0 2.473-.668 4.522-2.005 6.148-1.336 1.604-3.163 2.406-5.479 2.406-2.406 0-4.144-.924-5.213-2.773v2.339Zm8.186-3.943c.869-1.047 1.303-2.44 1.303-4.176 0-1.738-.434-3.108-1.303-4.11-.846-1.025-1.993-1.537-3.441-1.537-1.404 0-2.551.512-3.442 1.537-.891 1.024-1.336 2.394-1.336 4.11 0 1.715.445 3.107 1.336 4.176.891 1.047 2.038 1.57 3.442 1.57 1.425 0 2.573-.523 3.441-1.57ZM143.183 43.867h-9.054v-2.74h9.054v2.74ZM131.95 35.848v3.342a9.67 9.67 0 0 0-1.369-.1c-2.941 0-4.411 1.648-4.411 4.944v8.053h-3.141V36.015h3.074v2.807c.98-2.05 2.584-3.074 4.812-3.074.356 0 .701.033 1.035.1ZM107.216 48.278c.98 1.002 2.172 1.503 3.575 1.503 1.404 0 2.584-.5 3.542-1.503.98-1.025 1.47-2.44 1.47-4.244 0-1.782-.49-3.174-1.47-4.176-.958-1.025-2.138-1.537-3.542-1.537-1.403 0-2.595.512-3.575 1.537-.958 1.002-1.437 2.394-1.437 4.176 0 1.805.479 3.219 1.437 4.244Zm-2.339-10.325c1.559-1.626 3.531-2.439 5.914-2.439 2.384 0 4.344.813 5.881 2.44 1.559 1.603 2.339 3.63 2.339 6.08 0 2.473-.769 4.522-2.306 6.148-1.537 1.604-3.508 2.406-5.914 2.406-2.405 0-4.377-.802-5.914-2.406-1.537-1.626-2.305-3.675-2.305-6.148 0-2.45.768-4.477 2.305-6.08ZM98.566 52.087h-3.141V27.896h3.14v24.19ZM79.612 48.278c.98 1.002 2.171 1.503 3.575 1.503 1.403 0 2.584-.5 3.541-1.503.98-1.025 1.47-2.44 1.47-4.244 0-1.782-.49-3.174-1.47-4.176-.957-1.025-2.138-1.537-3.541-1.537-1.404 0-2.595.512-3.575 1.537-.958 1.002-1.437 2.394-1.437 4.176 0 1.805.479 3.219 1.437 4.244Zm-2.34-10.325c1.56-1.626 3.531-2.439 5.915-2.439 2.383 0 4.343.813 5.88 2.44 1.56 1.603 2.34 3.63 2.34 6.08 0 2.473-.77 4.522-2.306 6.148-1.537 1.604-3.509 2.406-5.914 2.406-2.406 0-4.377-.802-5.914-2.406-1.537-1.626-2.306-3.675-2.306-6.148 0-2.45.769-4.477 2.306-6.08ZM65.499 38.421c-1.36 0-2.517.49-3.475 1.47-.936.98-1.404 2.361-1.404 4.143 0 1.76.468 3.141 1.404 4.144.957 1.002 2.127 1.503 3.508 1.503 1.337 0 2.35-.334 3.04-1.002.713-.669 1.192-1.437 1.437-2.306l2.773 1.203c-.445 1.337-1.291 2.506-2.539 3.508-1.225 1.003-2.795 1.504-4.711 1.504-2.339 0-4.277-.813-5.814-2.44-1.537-1.625-2.305-3.663-2.305-6.114 0-2.495.768-4.533 2.305-6.114 1.537-1.604 3.464-2.406 5.78-2.406 1.96 0 3.542.501 4.745 1.504 1.225 1.002 2.027 2.205 2.406 3.608l-2.84 1.203a5.074 5.074 0 0 0-1.403-2.406c-.691-.668-1.66-1.002-2.907-1.002Z" fill="#3B82F6"/><path d="M54.562 43.867h-9.055v-2.74h9.055v2.74ZM41.333 52.087h-3.108V36.015h3.108v16.072Zm-3.175-20.549a2.246 2.246 0 0 1-.634-1.604c0-.623.211-1.158.634-1.604.446-.445.98-.668 1.604-.668.624 0 1.158.223 1.604.668.446.424.668.958.668 1.604 0 .624-.222 1.159-.668 1.604-.446.423-.98.635-1.604.635a2.246 2.246 0 0 1-1.604-.635ZM29.892 50.149c-.423.802-1.07 1.414-1.938 1.837-.869.401-1.804.602-2.807.602-1.826 0-3.285-.602-4.377-1.804-1.091-1.225-1.637-2.774-1.637-4.645V36.015h3.141v9.657c0 1.202.29 2.194.869 2.973.601.78 1.526 1.17 2.773 1.17s2.194-.368 2.84-1.103c.646-.757.969-1.76.969-3.007v-9.69h3.14v13.098c0 1.047.056 2.038.168 2.974h-3.007c-.09-.49-.134-1.136-.134-1.938ZM16.31 36.015l-6.85 6.783 6.983 9.289H12.5l-5.245-7.084-2.239 2.239v4.845H1.91V27.896h3.107v15.236l6.95-7.117h4.344ZM37.824 13.662l3.29-4.502-3.18-4.337h2.096l2.168 3.106 2.132-3.106h2.04L43.227 9.16c.184.233.73.98 1.636 2.242a368.546 368.546 0 0 1 1.617 2.26h-2.077l-2.278-3.252-2.242 3.252h-2.059ZM31.456.302c.527 0 .87.062 1.03.184V2.03c-.184-.074-.435-.11-.754-.11-.38 0-.71.11-.992.33-.27.22-.404.607-.404 1.158v1.415h5.843v8.84H34.47V6.384h-4.134v7.277h-1.783V6.385h-1.636V4.823h1.636V3.334c0-.943.276-1.684.827-2.223.551-.54 1.243-.809 2.076-.809Zm2.978 2.022a1.235 1.235 0 0 1-.35-.882c0-.343.117-.637.35-.882.245-.245.539-.368.882-.368.355 0 .649.123.882.368.245.232.367.526.367.882 0 .343-.122.637-.367.882-.245.233-.54.349-.882.349-.343 0-.638-.116-.883-.35ZM19.181 8.333h4.833c-.024-.662-.245-1.2-.662-1.617-.416-.429-1.004-.643-1.764-.643-.686 0-1.25.226-1.69.68-.441.44-.68.967-.717 1.58Zm5.09 2.297 1.489.515a3.963 3.963 0 0 1-1.434 2.021c-.698.515-1.543.772-2.535.772-1.238 0-2.291-.423-3.161-1.268-.858-.858-1.287-2.01-1.287-3.455 0-1.348.417-2.462 1.25-3.345.833-.882 1.825-1.323 2.977-1.323 1.335 0 2.377.423 3.124 1.268.747.833 1.121 1.954 1.121 3.363 0 .22-.012.405-.037.552h-6.652c.012.784.27 1.427.772 1.93.514.502 1.145.753 1.893.753 1.261 0 2.088-.595 2.48-1.783ZM16.308 4.731V6.57a5.326 5.326 0 0 0-.753-.055c-1.617 0-2.426.906-2.426 2.72v4.428h-1.727V4.823h1.69v1.544c.54-1.127 1.422-1.691 2.647-1.691a2.9 2.9 0 0 1 .57.055ZM2.69 6.716H5.3c.772 0 1.385-.196 1.838-.588.453-.405.68-.944.68-1.617 0-.686-.227-1.232-.68-1.636-.454-.417-1.066-.625-1.838-.625H2.69v4.466Zm2.94 1.617H2.69v5.33H.89V.632h4.74c1.19 0 2.157.368 2.904 1.103.748.735 1.121 1.654 1.121 2.756 0 1.115-.373 2.034-1.12 2.757-.748.723-1.716 1.084-2.904 1.084Z" fill="#000"/><path d="M122.273 17.356h-1.893l2.205-4.668-3.804-7.865h1.985l2.757 6.101 2.646-6.101h1.856l-5.752 12.533ZM115.761 2.03v2.793h1.911v1.562h-1.911v4.594c0 .417.092.723.276.92.196.195.514.293.955.293.258 0 .484-.024.68-.073v1.47c-.294.11-.686.165-1.176.165-.759 0-1.36-.22-1.801-.661-.441-.441-.661-1.06-.661-1.857V6.385h-1.691V4.823h.478c.453 0 .79-.123 1.011-.368.232-.257.349-.588.349-.992V2.03h1.58ZM111.138 4.731V6.57a5.33 5.33 0 0 0-.754-.055c-1.617 0-2.425.906-2.425 2.72v4.428h-1.728V4.823h1.691v1.544c.539-1.127 1.421-1.691 2.646-1.691.196 0 .386.018.57.055ZM97.392 8.333h4.833c-.024-.662-.245-1.2-.661-1.617-.417-.429-1.005-.643-1.765-.643-.686 0-1.25.226-1.69.68-.441.44-.68.967-.717 1.58Zm5.09 2.297 1.489.515a3.962 3.962 0 0 1-1.433 2.021c-.699.515-1.544.772-2.536.772-1.238 0-2.291-.423-3.161-1.268-.858-.858-1.287-2.01-1.287-3.455 0-1.348.417-2.462 1.25-3.345.833-.882 1.825-1.323 2.977-1.323 1.335 0 2.377.423 3.124 1.268.747.833 1.121 1.954 1.121 3.363 0 .22-.012.405-.037.552h-6.652c.012.784.27 1.427.772 1.93.514.502 1.145.753 1.893.753 1.261 0 2.088-.595 2.48-1.783ZM87.087 17.154h-1.71V4.823h1.673v1.378c.257-.465.643-.845 1.158-1.14.514-.293 1.115-.44 1.8-.44 1.275 0 2.267.435 2.978 1.305.723.87 1.084 1.972 1.084 3.307 0 1.348-.374 2.463-1.12 3.345-.736.882-1.734 1.323-2.996 1.323-.65 0-1.225-.135-1.728-.404-.502-.27-.882-.613-1.14-1.03v4.687Zm5.219-7.92c0-.895-.239-1.63-.717-2.206-.465-.588-1.096-.882-1.893-.882-.784 0-1.42.294-1.91.882-.479.576-.718 1.311-.718 2.205 0 .92.24 1.673.717 2.26.49.577 1.127.864 1.911.864.785 0 1.415-.287 1.893-.863.478-.588.717-1.342.717-2.26ZM76.68 11.567a2.647 2.647 0 0 0 1.967.827c.772 0 1.421-.275 1.948-.827.539-.563.808-1.341.808-2.334 0-.98-.27-1.745-.808-2.297a2.561 2.561 0 0 0-1.948-.845c-.772 0-1.428.282-1.967.845-.526.552-.79 1.317-.79 2.297 0 .993.264 1.77.79 2.334ZM75.394 5.89c.858-.894 1.942-1.342 3.253-1.342 1.31 0 2.389.448 3.234 1.342.858.882 1.287 1.997 1.287 3.344 0 1.36-.423 2.487-1.269 3.382-.845.882-1.929 1.323-3.252 1.323-1.323 0-2.408-.441-3.253-1.323-.845-.895-1.268-2.022-1.268-3.382 0-1.347.423-2.462 1.268-3.344ZM73.11 4.731V6.57a5.326 5.326 0 0 0-.753-.055c-1.618 0-2.426.906-2.426 2.72v4.428h-1.728V4.823h1.691v1.544c.54-1.127 1.421-1.691 2.646-1.691a2.9 2.9 0 0 1 .57.055ZM59.492 6.716h2.61c.771 0 1.384-.196 1.837-.588.453-.405.68-.944.68-1.617 0-.686-.227-1.232-.68-1.636-.453-.417-1.066-.625-1.837-.625h-2.61v4.466Zm2.94 1.617h-2.94v5.33h-1.801V.632h4.741c1.189 0 2.156.368 2.904 1.103.747.735 1.12 1.654 1.12 2.756 0 1.115-.373 2.034-1.12 2.757-.748.723-1.715 1.084-2.904 1.084Z" fill="#3B82F6"/><path d="M394.185 2.03v2.793h1.911v1.562h-1.911v4.594c0 .417.092.723.275.92.197.195.515.293.956.293.257 0 .484-.024.68-.073v1.47c-.294.11-.686.165-1.176.165-.76 0-1.36-.22-1.801-.661-.441-.441-.662-1.06-.662-1.857V6.385h-1.69V4.823h.478c.453 0 .79-.123 1.01-.368.233-.257.349-.588.349-.992V2.03h1.581ZM383.278 8.554v5.108h-1.728V4.823h1.691v1.268c.588-1.017 1.495-1.525 2.72-1.525 1.017 0 1.795.324 2.334.974.551.649.827 1.488.827 2.517v5.605h-1.728v-5.31c0-1.483-.686-2.224-2.058-2.224-.649 0-1.158.233-1.525.698-.356.453-.533 1.03-.533 1.728ZM371.38 11.292c0-.76.245-1.366.735-1.82.49-.465 1.139-.753 1.948-.863l2.389-.35c.453-.06.68-.281.68-.661 0-.466-.159-.845-.478-1.14-.318-.293-.796-.44-1.433-.44-.588 0-1.054.165-1.397.496-.343.318-.545.747-.606 1.286l-1.654-.386c.085-.845.471-1.531 1.157-2.058.686-.54 1.507-.809 2.463-.809 1.25 0 2.175.307 2.775.92.6.6.9 1.371.9 2.315v4.428c0 .527.037 1.011.111 1.452h-1.691a7.305 7.305 0 0 1-.092-1.194c-.245.392-.606.735-1.084 1.029-.466.294-1.054.44-1.764.44-.87 0-1.581-.256-2.132-.77-.551-.528-.827-1.152-.827-1.875Zm3.197 1.194c.772 0 1.391-.208 1.857-.625.465-.416.698-1.078.698-1.984v-.405l-2.702.405c-.392.06-.704.202-.937.422-.233.22-.349.521-.349.9 0 .344.129.644.386.901.27.258.619.386 1.047.386ZM368.992 13.662h-1.709V4.823h1.709v8.84ZM367.246 2.36a1.234 1.234 0 0 1-.349-.882c0-.343.116-.637.349-.882.245-.245.539-.367.882-.367.343 0 .637.122.882.367.245.233.368.527.368.882 0 .343-.123.637-.368.882-.245.233-.539.35-.882.35-.343 0-.637-.117-.882-.35ZM365.442 4.731V6.57a5.33 5.33 0 0 0-.754-.055c-1.617 0-2.425.906-2.425 2.72v4.428h-1.728V4.823h1.691v1.544c.539-1.127 1.421-1.691 2.646-1.691.196 0 .386.018.57.055ZM350.365 11.292c0-.76.245-1.366.735-1.82.49-.465 1.139-.753 1.948-.863l2.389-.35c.453-.06.68-.281.68-.661 0-.466-.159-.845-.478-1.14-.318-.293-.796-.44-1.433-.44-.588 0-1.054.165-1.397.496-.343.318-.545.747-.606 1.286l-1.654-.386c.086-.845.471-1.531 1.158-2.058.686-.54 1.506-.809 2.462-.809 1.25 0 2.175.307 2.775.92.6.6.9 1.371.9 2.315v4.428c0 .527.037 1.011.111 1.452h-1.691a7.305 7.305 0 0 1-.092-1.194c-.245.392-.606.735-1.084 1.029-.466.294-1.054.44-1.764.44-.87 0-1.581-.256-2.132-.77-.551-.528-.827-1.152-.827-1.875Zm3.198 1.194c.771 0 1.39-.208 1.856-.625.465-.416.698-1.078.698-1.984v-.405l-2.701.405c-.392.06-.705.202-.938.422-.232.22-.349.521-.349.9 0 .344.129.644.386.901.27.258.619.386 1.048.386ZM344.401 11.347 348.37.633h1.893l-5.017 13.03h-1.782L338.557.632h1.911l3.933 10.714Z" fill="#A855F7"/><path d="M557.494 2.03v2.793h1.911v1.562h-1.911v4.594c0 .417.092.723.275.92.196.195.515.293.956.293.257 0 .484-.024.68-.073v1.47c-.294.11-.686.165-1.176.165-.76 0-1.36-.22-1.801-.661-.441-.441-.662-1.06-.662-1.857V6.385h-1.69V4.823h.477c.454 0 .791-.123 1.011-.368.233-.257.349-.588.349-.992V2.03h1.581ZM546.587 8.554v5.108h-1.728V4.823h1.691v1.268c.588-1.017 1.494-1.525 2.72-1.525 1.016 0 1.794.324 2.333.974.552.649.827 1.488.827 2.517v5.605h-1.727v-5.31c0-1.483-.686-2.224-2.058-2.224-.65 0-1.158.233-1.526.698-.355.453-.532 1.03-.532 1.728ZM534.688 11.292c0-.76.246-1.366.736-1.82.49-.465 1.139-.753 1.948-.863l2.389-.35c.453-.06.679-.281.679-.661 0-.466-.159-.845-.477-1.14-.319-.293-.797-.44-1.434-.44-.588 0-1.053.165-1.396.496-.343.318-.546.747-.607 1.286l-1.654-.386c.086-.845.472-1.531 1.158-2.058.686-.54 1.507-.809 2.462-.809 1.25 0 2.175.307 2.775.92.601.6.901 1.371.901 2.315v4.428c0 .527.037 1.011.11 1.452h-1.691a7.31 7.31 0 0 1-.091-1.194c-.245.392-.607.735-1.085 1.029-.465.294-1.053.44-1.764.44-.87 0-1.58-.256-2.132-.77-.551-.528-.827-1.152-.827-1.875Zm3.198 1.194c.772 0 1.391-.208 1.856-.625.466-.416.698-1.078.698-1.984v-.405l-2.701.405c-.392.06-.704.202-.937.422-.233.22-.349.521-.349.9 0 .344.128.644.386.901.269.258.618.386 1.047.386ZM532.301 13.662h-1.709V4.823h1.709v8.84ZM530.555 2.36a1.234 1.234 0 0 1-.349-.882c0-.343.116-.637.349-.882.245-.245.539-.367.882-.367.343 0 .637.122.882.367.245.233.368.527.368.882 0 .343-.123.637-.368.882-.245.233-.539.35-.882.35-.343 0-.637-.117-.882-.35ZM528.751 4.731V6.57a5.341 5.341 0 0 0-.754-.055c-1.617 0-2.425.906-2.425 2.72v4.428h-1.728V4.823h1.691v1.544c.539-1.127 1.421-1.691 2.646-1.691.196 0 .386.018.57.055ZM513.673 11.292c0-.76.245-1.366.736-1.82.49-.465 1.139-.753 1.947-.863l2.389-.35c.454-.06.68-.281.68-.661 0-.466-.159-.845-.477-1.14-.319-.293-.797-.44-1.434-.44-.588 0-1.053.165-1.396.496-.343.318-.546.747-.607 1.286l-1.654-.386c.086-.845.472-1.531 1.158-2.058.686-.54 1.507-.809 2.462-.809 1.25 0 2.175.307 2.775.92.601.6.901 1.371.901 2.315v4.428c0 .527.037 1.011.11 1.452h-1.691a7.31 7.31 0 0 1-.091-1.194c-.245.392-.607.735-1.085 1.029-.465.294-1.053.44-1.764.44-.87 0-1.58-.256-2.132-.77-.551-.528-.827-1.152-.827-1.875Zm3.198 1.194c.772 0 1.391-.208 1.856-.625.466-.416.698-1.078.698-1.984v-.405l-2.701.405c-.392.06-.704.202-.937.422-.233.22-.349.521-.349.9 0 .344.128.644.386.901.269.258.618.386 1.047.386ZM512.662 4.823l-3.529 8.84h-1.746l-3.583-8.84h1.948l2.518 6.818 2.536-6.818h1.856ZM502.877 9.142h-4.98V7.635h4.98v1.507ZM489.356 13.662h-1.709V.357h1.709v5.716c.232-.43.6-.784 1.102-1.066.515-.294 1.121-.441 1.82-.441 1.286 0 2.284.435 2.995 1.304.711.87 1.066 1.98 1.066 3.327 0 1.36-.368 2.487-1.103 3.381-.735.882-1.739 1.323-3.014 1.323-1.323 0-2.278-.508-2.866-1.525v1.286Zm4.502-2.168c.478-.576.717-1.342.717-2.297 0-.956-.239-1.71-.717-2.26-.466-.564-1.096-.846-1.893-.846-.772 0-1.403.282-1.893.845-.49.564-.735 1.317-.735 2.26 0 .944.245 1.71.735 2.298.49.576 1.121.864 1.893.864.784 0 1.415-.288 1.893-.864ZM483.063 12.596a2.31 2.31 0 0 1-1.066 1.011c-.477.22-.992.33-1.543.33-1.005 0-1.807-.33-2.408-.991-.6-.674-.9-1.526-.9-2.555V4.823h1.727v5.31c0 .663.16 1.208.478 1.637.331.428.839.643 1.525.643.686 0 1.207-.203 1.562-.607.356-.416.533-.968.533-1.654V4.823h1.728v7.204c0 .576.03 1.12.092 1.635h-1.654a6.187 6.187 0 0 1-.074-1.066ZM475.301 3.592l-1.617.57c-.086-.564-.361-1.073-.827-1.526-.466-.465-1.109-.698-1.93-.698-.722 0-1.323.208-1.8.625-.478.416-.717.93-.717 1.543 0 .478.141.882.422 1.213.295.331.711.558 1.25.68l1.948.423c1.078.233 1.911.674 2.499 1.323.588.637.882 1.415.882 2.334 0 1.053-.416 1.96-1.249 2.72-.833.76-1.918 1.139-3.253 1.139-1.458 0-2.603-.38-3.436-1.14-.821-.771-1.299-1.684-1.434-2.738l1.728-.55a3.13 3.13 0 0 0 .918 1.984c.54.539 1.275.808 2.206.808.857 0 1.519-.196 1.984-.588.466-.392.699-.888.699-1.488a1.8 1.8 0 0 0-.496-1.268c-.331-.368-.815-.619-1.452-.754L469.77 7.8c-.968-.208-1.74-.619-2.316-1.231-.576-.613-.864-1.39-.864-2.334 0-1.03.417-1.93 1.25-2.701.845-.785 1.862-1.177 3.051-1.177 1.335 0 2.358.325 3.069.974.71.65 1.157 1.403 1.341 2.26Z" fill="#06B6D4"/><path d="M218.13 74.897v1.838a5.324 5.324 0 0 0-.754-.055c-1.617 0-2.425.907-2.425 2.72v4.429h-1.728v-8.84h1.691v1.544c.539-1.127 1.421-1.69 2.646-1.69a2.9 2.9 0 0 1 .57.054ZM204.526 81.734a2.647 2.647 0 0 0 1.966.827c.772 0 1.422-.276 1.948-.827.539-.564.809-1.342.809-2.334 0-.98-.27-1.746-.809-2.297a2.56 2.56 0 0 0-1.948-.846 2.62 2.62 0 0 0-1.966.846c-.527.551-.79 1.317-.79 2.297 0 .992.263 1.77.79 2.334Zm-1.286-5.679c.857-.894 1.942-1.341 3.252-1.341 1.311 0 2.389.447 3.235 1.341.857.882 1.286 1.997 1.286 3.345 0 1.36-.423 2.487-1.268 3.381-.845.882-1.929 1.323-3.253 1.323-1.323 0-2.407-.44-3.252-1.323-.846-.894-1.268-2.021-1.268-3.381 0-1.348.422-2.463 1.268-3.345ZM199.768 83.829h-1.727V70.524h1.727v13.305ZM189.344 81.734a2.646 2.646 0 0 0 1.966.827c.772 0 1.421-.276 1.948-.827.539-.564.808-1.342.808-2.334 0-.98-.269-1.746-.808-2.297a2.561 2.561 0 0 0-1.948-.846c-.772 0-1.427.282-1.966.846-.527.551-.791 1.317-.791 2.297 0 .992.264 1.77.791 2.334Zm-1.287-5.679c.858-.894 1.942-1.341 3.253-1.341 1.311 0 2.389.447 3.234 1.341.858.882 1.287 1.997 1.287 3.345 0 1.36-.423 2.487-1.268 3.381-.846.882-1.93 1.323-3.253 1.323-1.323 0-2.407-.44-3.253-1.323-.845-.894-1.268-2.021-1.268-3.381 0-1.348.423-2.463 1.268-3.345ZM181.581 76.313c-.747 0-1.384.269-1.911.808-.514.54-.772 1.299-.772 2.279 0 .968.258 1.727.772 2.279.527.55 1.17.826 1.93.826.735 0 1.292-.183 1.672-.55.392-.368.656-.791.79-1.269l1.526.662c-.245.735-.711 1.378-1.397 1.93-.674.55-1.538.826-2.591.826-1.287 0-2.352-.447-3.198-1.341-.845-.895-1.268-2.016-1.268-3.363 0-1.372.423-2.493 1.268-3.363.846-.882 1.905-1.323 3.179-1.323 1.079 0 1.948.275 2.61.827.674.551 1.115 1.213 1.323 1.984l-1.562.662a2.792 2.792 0 0 0-.772-1.323c-.38-.368-.912-.552-1.599-.552ZM175.566 79.308h-4.98V77.8h4.98v1.507ZM161.454 79.382c0 .93.227 1.69.68 2.278.466.588 1.103.882 1.912.882.771 0 1.39-.3 1.856-.9.465-.6.698-1.366.698-2.297 0-.92-.227-1.66-.68-2.224-.453-.563-1.072-.845-1.856-.845s-1.415.288-1.893.864c-.478.575-.717 1.323-.717 2.242Zm5.164 3.252v-.147c-.232.453-.588.833-1.065 1.14-.466.294-1.023.44-1.673.44-1.262 0-2.278-.44-3.05-1.323-.76-.894-1.14-2.015-1.14-3.362 0-1.287.392-2.377 1.176-3.272.785-.906 1.789-1.36 3.014-1.36.723 0 1.311.147 1.764.442.454.281.766.63.938 1.047v-5.715h1.709v11.67c0 .6.03 1.145.092 1.635h-1.673a6.889 6.889 0 0 1-.092-1.195ZM151.834 78.72v5.109h-1.728v-8.84h1.691v1.268c.588-1.017 1.495-1.525 2.72-1.525 1.017 0 1.795.325 2.334.974.551.65.827 1.489.827 2.518v5.605h-1.728v-5.311c0-1.483-.686-2.224-2.058-2.224-.649 0-1.158.233-1.525.698-.356.454-.533 1.03-.533 1.728ZM145.523 82.763a2.31 2.31 0 0 1-1.066 1.01c-.478.221-.992.331-1.544.331-1.004 0-1.807-.33-2.407-.992-.6-.674-.9-1.525-.9-2.554v-5.569h1.727V80.3c0 .662.159 1.207.478 1.636.331.429.839.643 1.525.643.686 0 1.207-.202 1.562-.606.355-.417.533-.968.533-1.654v-5.33h1.727v7.204c0 .576.031 1.121.092 1.636h-1.654a6.204 6.204 0 0 1-.073-1.066ZM131.09 81.734a2.647 2.647 0 0 0 1.966.827c.772 0 1.422-.276 1.948-.827.539-.564.809-1.342.809-2.334 0-.98-.27-1.746-.809-2.297a2.56 2.56 0 0 0-1.948-.846 2.62 2.62 0 0 0-1.966.846c-.527.551-.79 1.317-.79 2.297 0 .992.263 1.77.79 2.334Zm-1.286-5.679c.857-.894 1.941-1.341 3.252-1.341 1.311 0 2.389.447 3.235 1.341.857.882 1.286 1.997 1.286 3.345 0 1.36-.423 2.487-1.268 3.381-.845.882-1.929 1.323-3.253 1.323-1.323 0-2.407-.44-3.252-1.323-.846-.894-1.268-2.021-1.268-3.381 0-1.348.422-2.463 1.268-3.345ZM127.519 74.897v1.838a5.31 5.31 0 0 0-.753-.055c-1.617 0-2.426.907-2.426 2.72v4.429h-1.727v-8.84h1.69v1.544c.54-1.127 1.422-1.69 2.647-1.69.196 0 .386.018.569.054ZM111.345 84.306l1.673-.385c.061.624.312 1.139.753 1.543.441.417.993.625 1.654.625 1.801 0 2.702-.956 2.702-2.867v-1.268c-.221.429-.57.778-1.048 1.048-.465.27-1.017.404-1.654.404-1.176 0-2.15-.398-2.922-1.195-.759-.808-1.139-1.837-1.139-3.087 0-1.213.38-2.23 1.139-3.05.76-.834 1.734-1.25 2.922-1.25 1.348 0 2.254.466 2.72 1.397v-1.232h1.709v8.178c0 .588-.08 1.133-.239 1.636a4.172 4.172 0 0 1-.717 1.415c-.33.428-.796.765-1.396 1.01-.588.245-1.281.368-2.077.368-1.09 0-2.015-.313-2.775-.937-.759-.613-1.194-1.397-1.305-2.353Zm4.337-2.352c.748 0 1.354-.257 1.82-.772.465-.526.698-1.213.698-2.058 0-.845-.233-1.525-.698-2.04-.466-.526-1.072-.79-1.82-.79-.759 0-1.378.257-1.856.772-.465.514-.698 1.2-.698 2.058 0 .87.227 1.562.68 2.077.466.502 1.09.753 1.874.753ZM110.721 74.99l-3.768 3.73 3.841 5.109h-2.168l-2.886-3.896-1.231 1.231v2.665H102.8V70.524h1.709v8.38l3.823-3.915h2.389ZM96.768 76.313c-.748 0-1.385.269-1.912.808-.514.54-.771 1.299-.771 2.279 0 .968.257 1.727.771 2.279.527.55 1.17.826 1.93.826.735 0 1.293-.183 1.672-.55.392-.368.656-.791.79-1.269l1.526.662c-.245.735-.711 1.378-1.397 1.93-.674.55-1.537.826-2.591.826-1.286 0-2.352-.447-3.198-1.341-.845-.895-1.268-2.016-1.268-3.363 0-1.372.423-2.493 1.268-3.363.846-.882 1.906-1.323 3.18-1.323 1.078 0 1.948.275 2.61.827.673.551 1.114 1.213 1.322 1.984l-1.562.662a2.792 2.792 0 0 0-.772-1.323c-.38-.368-.912-.552-1.598-.552ZM82.885 81.458c0-.76.245-1.366.735-1.82.49-.465 1.14-.753 1.948-.863l2.39-.35c.453-.06.68-.28.68-.66 0-.466-.16-.846-.479-1.14-.318-.294-.796-.441-1.433-.441-.588 0-1.054.165-1.397.496-.343.319-.545.747-.606 1.286l-1.654-.385c.086-.846.472-1.532 1.158-2.059.686-.539 1.507-.808 2.462-.808 1.25 0 2.175.306 2.775.919.6.6.9 1.372.9 2.315v4.429c0 .527.037 1.01.11 1.452h-1.69a7.284 7.284 0 0 1-.092-1.195c-.245.392-.606.735-1.084 1.03-.466.293-1.054.44-1.764.44-.87 0-1.58-.257-2.132-.772-.551-.526-.827-1.151-.827-1.874Zm3.198 1.195c.772 0 1.39-.209 1.856-.625.465-.417.698-1.078.698-1.985v-.404l-2.701.404c-.392.061-.705.202-.938.423-.232.22-.349.52-.349.9 0 .343.129.643.386.9.27.258.619.386 1.048.386ZM74.252 83.829h-1.709V70.524h1.709v5.715c.233-.429.6-.784 1.103-1.066.514-.294 1.12-.44 1.819-.44 1.286 0 2.285.434 2.995 1.304.711.87 1.066 1.978 1.066 3.326 0 1.36-.367 2.487-1.102 3.381-.735.882-1.74 1.324-3.014 1.324-1.323 0-2.279-.509-2.867-1.526v1.287Zm4.502-2.169c.478-.576.717-1.341.717-2.297 0-.956-.239-1.709-.717-2.26-.465-.564-1.096-.846-1.892-.846-.772 0-1.403.282-1.893.846-.49.563-.735 1.317-.735 2.26 0 .943.245 1.71.735 2.297.49.576 1.12.864 1.893.864.784 0 1.415-.288 1.892-.864Z" fill="#F43F5E"/><path fill-rule="evenodd" clip-rule="evenodd" d="M65.28 74.585c.261.261.261.684 0 .945l-5.847 5.848a.668.668 0 1 1-.945-.945l5.847-5.848a.668.668 0 0 1 .946 0Z" fill="#EF4444"/><path fill-rule="evenodd" clip-rule="evenodd" d="M58.488 74.585a.668.668 0 0 1 .945 0l5.848 5.848a.668.668 0 0 1-.946.945l-5.847-5.848a.668.668 0 0 1 0-.945Z" fill="#EF4444"/><path d="M381.789 78.5h4.833c-.025-.662-.245-1.201-.662-1.618-.416-.429-1.004-.643-1.764-.643-.686 0-1.25.227-1.691.68-.441.441-.68.968-.716 1.58Zm5.09 2.296 1.489.515a3.97 3.97 0 0 1-1.434 2.021c-.698.515-1.544.772-2.536.772-1.237 0-2.291-.422-3.161-1.268-.857-.857-1.286-2.009-1.286-3.454 0-1.348.416-2.463 1.25-3.345.833-.882 1.825-1.323 2.977-1.323 1.335 0 2.376.422 3.124 1.268.747.833 1.121 1.954 1.121 3.363 0 .22-.013.404-.037.551h-6.653c.013.784.27 1.427.772 1.93.515.502 1.146.753 1.893.753 1.262 0 2.089-.594 2.481-1.782ZM376.174 82.763a2.31 2.31 0 0 1-1.066 1.01c-.478.221-.992.331-1.544.331-1.004 0-1.807-.33-2.407-.992-.6-.674-.9-1.525-.9-2.554v-5.569h1.727V80.3c0 .662.159 1.207.478 1.636.331.429.839.643 1.525.643.686 0 1.207-.202 1.562-.606.355-.417.533-.968.533-1.654v-5.33h1.728v7.204c0 .576.03 1.121.091 1.636h-1.654a6.204 6.204 0 0 1-.073-1.066ZM367.5 83.829h-1.728V70.524h1.728v13.305ZM356.588 83.829h-1.709V70.524h1.709v5.715c.233-.429.6-.784 1.103-1.066.514-.294 1.121-.44 1.819-.44 1.286 0 2.285.434 2.995 1.304.711.87 1.066 1.978 1.066 3.326 0 1.36-.367 2.487-1.102 3.381-.736.882-1.74 1.324-3.014 1.324-1.323 0-2.279-.509-2.867-1.526v1.287Zm4.502-2.169c.478-.576.717-1.341.717-2.297 0-.956-.239-1.709-.717-2.26-.465-.564-1.096-.846-1.893-.846-.771 0-1.402.282-1.892.846-.49.563-.735 1.317-.735 2.26 0 .943.245 1.71.735 2.297.49.576 1.121.864 1.892.864.785 0 1.416-.288 1.893-.864Z" fill="#F43F5E"/><path fill-rule="evenodd" clip-rule="evenodd" d="M347.617 74.585a.67.67 0 0 1 0 .945l-5.848 5.848a.668.668 0 1 1-.945-.945l5.847-5.848a.67.67 0 0 1 .946 0Z" fill="#EF4444"/><path fill-rule="evenodd" clip-rule="evenodd" d="M340.824 74.585a.668.668 0 0 1 .945 0l5.848 5.848a.67.67 0 0 1-.946.945l-5.847-5.848a.668.668 0 0 1 0-.945Z" fill="#EF4444"/><path d="m516.937 74.99-3.767 3.73 3.841 5.109h-2.169l-2.885-3.896-1.231 1.231v2.665h-1.709V70.524h1.709v8.38l3.822-3.915h2.389ZM507.176 74.897v1.838a5.324 5.324 0 0 0-.754-.055c-1.617 0-2.425.907-2.425 2.72v4.429h-1.728v-8.84h1.691v1.544c.539-1.127 1.421-1.69 2.646-1.69a2.9 2.9 0 0 1 .57.054ZM492.099 81.458c0-.76.245-1.366.735-1.82.49-.465 1.139-.753 1.948-.863l2.389-.35c.453-.06.68-.28.68-.66 0-.466-.16-.846-.478-1.14-.319-.294-.796-.441-1.433-.441-.589 0-1.054.165-1.397.496-.343.319-.545.747-.607 1.286l-1.653-.385c.085-.846.471-1.532 1.157-2.059.686-.539 1.507-.808 2.463-.808 1.249 0 2.174.306 2.775.919.6.6.9 1.372.9 2.315v4.429c0 .527.037 1.01.11 1.452h-1.69a7.196 7.196 0 0 1-.092-1.195c-.245.392-.607.735-1.084 1.03-.466.293-1.054.44-1.765.44-.869 0-1.58-.257-2.131-.772-.552-.526-.827-1.151-.827-1.874Zm3.197 1.195c.772 0 1.391-.209 1.856-.625.466-.417.699-1.078.699-1.985v-.404l-2.702.404c-.392.061-.704.202-.937.423-.233.22-.349.52-.349.9 0 .343.129.643.386.9.269.258.619.386 1.047.386ZM482.876 79.382c0 .93.226 1.69.68 2.278.465.588 1.102.882 1.911.882.772 0 1.39-.3 1.856-.9.466-.6.698-1.366.698-2.297 0-.92-.226-1.66-.68-2.224-.453-.563-1.072-.845-1.856-.845s-1.415.288-1.893.864c-.477.575-.716 1.323-.716 2.242Zm5.164 3.252v-.147c-.233.453-.588.833-1.066 1.14-.466.294-1.023.44-1.672.44-1.262 0-2.279-.44-3.051-1.323-.76-.894-1.139-2.015-1.139-3.362 0-1.287.392-2.377 1.176-3.272.784-.906 1.788-1.36 3.014-1.36.722 0 1.31.147 1.764.442.453.281.765.63.937 1.047v-5.715h1.709v11.67c0 .6.031 1.145.092 1.635h-1.672a6.791 6.791 0 0 1-.092-1.195Z" fill="#F43F5E"/><path fill-rule="evenodd" clip-rule="evenodd" d="M474.584 74.585a.668.668 0 0 1 0 .945l-5.847 5.848a.668.668 0 1 1-.945-.945l5.847-5.848a.668.668 0 0 1 .945 0Z" fill="#EF4444"/><path fill-rule="evenodd" clip-rule="evenodd" d="M467.792 74.585a.668.668 0 0 1 .945 0l5.847 5.848a.668.668 0 0 1-.945.945l-5.847-5.848a.668.668 0 0 1 0-.945Z" fill="#EF4444"/><path d="M533.413 103.298v1.838a5.28 5.28 0 0 0-.753-.055c-1.617 0-2.426.906-2.426 2.72v4.428h-1.727v-8.839h1.691v1.544c.539-1.127 1.421-1.691 2.646-1.691.196 0 .386.018.569.055ZM519.668 106.9h4.833c-.025-.662-.245-1.201-.662-1.617-.416-.429-1.004-.643-1.764-.643-.686 0-1.25.226-1.691.68-.441.441-.68.967-.716 1.58Zm5.09 2.297 1.489.515a3.963 3.963 0 0 1-1.434 2.021c-.698.515-1.543.772-2.536.772-1.237 0-2.291-.423-3.161-1.268-.857-.858-1.286-2.009-1.286-3.455 0-1.348.416-2.462 1.25-3.344.833-.883 1.825-1.324 2.977-1.324 1.335 0 2.376.423 3.124 1.268.747.833 1.121 1.954 1.121 3.363 0 .221-.013.405-.037.552h-6.652c.012.784.269 1.427.771 1.929.515.503 1.146.754 1.893.754 1.262 0 2.089-.594 2.481-1.783ZM514.419 100.597v2.793h1.912v1.562h-1.912v4.594c0 .417.092.723.276.919.196.196.515.294.956.294.257 0 .484-.024.68-.073v1.47c-.295.11-.687.165-1.177.165-.759 0-1.359-.22-1.801-.661-.441-.441-.661-1.06-.661-1.856v-4.852h-1.691v-1.562h.478c.453 0 .79-.122 1.011-.367.233-.258.349-.589.349-.993v-1.433h1.58ZM503.512 107.029v5.2h-1.727V98.924h1.727v5.495c.588-.857 1.483-1.286 2.683-1.286 1.017 0 1.795.324 2.334.974.552.649.827 1.488.827 2.517v5.605h-1.727v-5.311c0-1.482-.686-2.223-2.058-2.223-.638 0-1.134.22-1.489.661-.355.429-.545.987-.57 1.673ZM490.517 112.707l1.673-.386c.061.625.312 1.14.753 1.544.441.416.993.625 1.654.625 1.801 0 2.702-.956 2.702-2.867v-1.268c-.221.429-.57.778-1.048 1.047-.465.27-1.017.405-1.654.405-1.176 0-2.15-.398-2.922-1.195-.759-.808-1.139-1.838-1.139-3.087 0-1.213.38-2.23 1.139-3.051.76-.833 1.734-1.249 2.922-1.249 1.348 0 2.254.465 2.72 1.396v-1.231h1.709v8.178c0 .588-.08 1.133-.239 1.635a4.16 4.16 0 0 1-.717 1.415c-.33.429-.796.766-1.396 1.011-.588.245-1.281.368-2.077.368-1.09 0-2.015-.313-2.775-.938-.759-.612-1.194-1.396-1.305-2.352Zm4.337-2.352c.748 0 1.354-.257 1.82-.772.465-.527.698-1.213.698-2.058 0-.845-.233-1.525-.698-2.04-.466-.527-1.072-.79-1.82-.79-.759 0-1.378.257-1.856.772-.465.514-.698 1.2-.698 2.058 0 .87.227 1.562.68 2.076.466.503 1.09.754 1.874.754ZM488.222 112.229h-1.709v-8.839h1.709v8.839Zm-1.746-11.301a1.236 1.236 0 0 1-.349-.883c0-.343.116-.637.349-.882.245-.245.539-.367.882-.367.343 0 .637.122.882.367.245.233.368.527.368.882 0 .343-.123.638-.368.883a1.238 1.238 0 0 1-.882.349c-.343 0-.637-.117-.882-.349ZM483.574 112.229h-1.727V98.924h1.727v13.305Z" fill="#F43F5E"/><path fill-rule="evenodd" clip-rule="evenodd" d="M474.584 102.986a.668.668 0 0 1 0 .945l-5.847 5.847a.668.668 0 1 1-.945-.945l5.847-5.847a.668.668 0 0 1 .945 0Z" fill="#EF4444"/><path fill-rule="evenodd" clip-rule="evenodd" d="M467.792 102.986a.668.668 0 0 1 .945 0l5.847 5.847a.668.668 0 1 1-.945.945l-5.847-5.847a.668.668 0 0 1 0-.945Z" fill="#EF4444"/><path d="M370.605 109.859c0-.76.245-1.366.735-1.82.49-.465 1.139-.753 1.948-.863l2.389-.349c.453-.062.68-.282.68-.662 0-.466-.16-.845-.478-1.139-.319-.294-.797-.441-1.434-.441-.588 0-1.053.165-1.396.496-.343.318-.545.747-.607 1.286l-1.654-.386c.086-.845.472-1.531 1.158-2.058.686-.539 1.507-.809 2.463-.809 1.249 0 2.174.307 2.775.919.6.601.9 1.372.9 2.316v4.429c0 .526.037 1.01.11 1.451h-1.69a7.183 7.183 0 0 1-.092-1.194c-.245.392-.607.735-1.085 1.029-.465.294-1.053.441-1.764.441-.87 0-1.58-.257-2.131-.772-.552-.527-.827-1.151-.827-1.874Zm3.197 1.194c.772 0 1.391-.208 1.856-.625.466-.416.699-1.078.699-1.984v-.405l-2.702.405c-.392.061-.704.202-.937.422-.233.221-.349.521-.349.901 0 .343.128.643.386.9.269.258.618.386 1.047.386ZM366.939 100.597v2.793h1.911v1.562h-1.911v4.594c0 .417.092.723.276.919.196.196.514.294.955.294.258 0 .484-.024.68-.073v1.47c-.294.11-.686.165-1.176.165-.759 0-1.36-.22-1.801-.661-.441-.441-.661-1.06-.661-1.856v-4.852h-1.691v-1.562h.478c.453 0 .79-.122 1.011-.367.232-.258.349-.589.349-.993v-1.433h1.58ZM358.591 104.713c-.747 0-1.385.27-1.911.809-.515.539-.772 1.298-.772 2.279 0 .967.257 1.727.772 2.278.526.552 1.17.827 1.929.827.735 0 1.293-.184 1.673-.551.392-.368.655-.79.79-1.268l1.525.661c-.245.736-.711 1.379-1.397 1.93-.673.551-1.537.827-2.591.827-1.286 0-2.352-.447-3.197-1.342-.846-.894-1.268-2.015-1.268-3.362 0-1.373.422-2.494 1.268-3.363.845-.883 1.905-1.324 3.179-1.324 1.078 0 1.948.276 2.609.827.674.552 1.115 1.213 1.324 1.985l-1.562.662a2.794 2.794 0 0 0-.772-1.323c-.38-.368-.913-.552-1.599-.552Z" fill="#F43F5E"/><path fill-rule="evenodd" clip-rule="evenodd" d="M347.617 102.986a.67.67 0 0 1 0 .945l-5.848 5.847a.668.668 0 1 1-.945-.945l5.847-5.847a.67.67 0 0 1 .946 0Z" fill="#EF4444"/><path fill-rule="evenodd" clip-rule="evenodd" d="M340.824 102.986a.668.668 0 0 1 .945 0l5.848 5.847a.67.67 0 0 1-.946.945l-5.847-5.847a.668.668 0 0 1 0-.945Z" fill="#EF4444"/><path d="M397.667 135.521v5.109h-1.727v-8.839h1.69v1.268c.589-1.017 1.495-1.526 2.72-1.526 1.017 0 1.795.325 2.334.974.551.65.827 1.489.827 2.518v5.605h-1.727v-5.311c0-1.482-.686-2.224-2.059-2.224-.649 0-1.157.233-1.525.699-.355.453-.533 1.029-.533 1.727ZM387.243 138.535a2.647 2.647 0 0 0 1.966.827 2.59 2.59 0 0 0 1.948-.827c.539-.564.809-1.341.809-2.334 0-.98-.27-1.746-.809-2.297a2.563 2.563 0 0 0-1.948-.845 2.62 2.62 0 0 0-1.966.845c-.527.551-.79 1.317-.79 2.297 0 .993.263 1.77.79 2.334Zm-1.287-5.678c.858-.895 1.942-1.342 3.253-1.342 1.311 0 2.389.447 3.234 1.342.858.882 1.287 1.997 1.287 3.344 0 1.36-.423 2.487-1.268 3.382-.846.882-1.93 1.323-3.253 1.323-1.323 0-2.407-.441-3.253-1.323-.845-.895-1.268-2.022-1.268-3.382 0-1.347.423-2.462 1.268-3.344ZM382.484 140.63h-1.709v-8.839h1.709v8.839Zm-1.745-11.302a1.234 1.234 0 0 1-.349-.882c0-.343.116-.637.349-.882.245-.245.539-.368.882-.368.343 0 .637.123.882.368.245.233.367.527.367.882 0 .343-.122.637-.367.882a1.234 1.234 0 0 1-.882.349c-.343 0-.637-.116-.882-.349ZM376.558 128.997v2.794h1.912v1.562h-1.912v4.594c0 .417.092.723.276.919.196.196.515.294.956.294.257 0 .484-.025.68-.074v1.471c-.294.11-.686.165-1.176.165-.76 0-1.36-.221-1.801-.662-.441-.441-.662-1.059-.662-1.856v-4.851h-1.691v-1.562h.478c.453 0 .79-.123 1.011-.368.233-.257.349-.588.349-.992v-1.434h1.58ZM368.21 133.114c-.747 0-1.384.269-1.911.808-.514.539-.772 1.299-.772 2.279 0 .968.258 1.728.772 2.279.527.551 1.17.827 1.93.827.735 0 1.292-.184 1.672-.551a2.74 2.74 0 0 0 .79-1.268l1.526.661c-.245.735-.711 1.378-1.397 1.93-.674.551-1.538.827-2.591.827-1.287 0-2.352-.448-3.198-1.342-.845-.894-1.268-2.015-1.268-3.363 0-1.372.423-2.493 1.268-3.363.846-.882 1.905-1.323 3.179-1.323 1.079 0 1.948.276 2.61.827.674.551 1.115 1.213 1.323 1.985l-1.562.661a2.796 2.796 0 0 0-.772-1.323c-.38-.367-.913-.551-1.599-.551ZM354.328 138.259c0-.759.245-1.366.735-1.819.49-.465 1.139-.753 1.948-.864l2.389-.349c.453-.061.68-.282.68-.661 0-.466-.16-.846-.478-1.14-.319-.294-.796-.441-1.433-.441-.589 0-1.054.166-1.397.496-.343.319-.545.748-.607 1.287l-1.653-.386c.085-.845.471-1.532 1.157-2.058.686-.539 1.507-.809 2.463-.809 1.249 0 2.174.306 2.775.919.6.6.9 1.372.9 2.315v4.429c0 .527.037 1.011.11 1.452h-1.69a7.2 7.2 0 0 1-.092-1.194c-.245.392-.607.735-1.084 1.029-.466.294-1.054.441-1.765.441-.869 0-1.58-.258-2.131-.772-.552-.527-.827-1.152-.827-1.875Zm3.197 1.195c.772 0 1.391-.208 1.856-.625.466-.416.699-1.078.699-1.985v-.404l-2.702.404c-.392.062-.704.203-.937.423-.233.221-.349.521-.349.901 0 .343.129.643.386.9.269.257.619.386 1.047.386Z" fill="#F43F5E"/><path fill-rule="evenodd" clip-rule="evenodd" d="M347.617 131.387a.67.67 0 0 1 0 .945l-5.848 5.847a.668.668 0 1 1-.945-.945l5.847-5.847a.67.67 0 0 1 .946 0Z" fill="#EF4444"/><path fill-rule="evenodd" clip-rule="evenodd" d="M340.824 131.387a.668.668 0 0 1 .945 0l5.848 5.847a.67.67 0 0 1-.946.945l-5.847-5.847a.668.668 0 0 1 0-.945Z" fill="#EF4444"/><path d="M151.406 103.298v1.838a5.293 5.293 0 0 0-.754-.055c-1.617 0-2.425.906-2.425 2.72v4.428h-1.728v-8.839h1.691v1.544c.539-1.127 1.421-1.691 2.646-1.691.196 0 .386.018.57.055ZM137.802 110.134a2.643 2.643 0 0 0 1.966.827c.772 0 1.421-.275 1.948-.827.539-.563.809-1.341.809-2.333 0-.981-.27-1.746-.809-2.298a2.563 2.563 0 0 0-1.948-.845 2.62 2.62 0 0 0-1.966.845c-.527.552-.79 1.317-.79 2.298 0 .992.263 1.77.79 2.333Zm-1.286-5.678c.857-.894 1.941-1.342 3.252-1.342 1.311 0 2.389.448 3.235 1.342.857.882 1.286 1.997 1.286 3.345 0 1.359-.423 2.487-1.268 3.381-.845.882-1.93 1.323-3.253 1.323-1.323 0-2.407-.441-3.252-1.323-.846-.894-1.268-2.022-1.268-3.381 0-1.348.422-2.463 1.268-3.345ZM133.044 112.229h-1.727V98.924h1.727v13.305ZM122.619 110.134c.54.552 1.195.827 1.967.827s1.421-.275 1.948-.827c.539-.563.808-1.341.808-2.333 0-.981-.269-1.746-.808-2.298a2.563 2.563 0 0 0-1.948-.845c-.772 0-1.427.282-1.967.845-.526.552-.79 1.317-.79 2.298 0 .992.264 1.77.79 2.333Zm-1.286-5.678c.858-.894 1.942-1.342 3.253-1.342 1.311 0 2.389.448 3.234 1.342.858.882 1.287 1.997 1.287 3.345 0 1.359-.423 2.487-1.269 3.381-.845.882-1.929 1.323-3.252 1.323-1.323 0-2.408-.441-3.253-1.323-.845-.894-1.268-2.022-1.268-3.381 0-1.348.423-2.463 1.268-3.345ZM114.857 104.713c-.747 0-1.384.27-1.911.809-.515.539-.772 1.298-.772 2.279 0 .967.257 1.727.772 2.278.527.552 1.17.827 1.93.827.735 0 1.292-.184 1.672-.551.392-.368.655-.79.79-1.268l1.525.661c-.245.736-.71 1.379-1.396 1.93-.674.551-1.538.827-2.591.827-1.287 0-2.353-.447-3.198-1.342-.845-.894-1.268-2.015-1.268-3.362 0-1.373.423-2.494 1.268-3.363.845-.883 1.905-1.324 3.179-1.324 1.078 0 1.948.276 2.61.827.674.552 1.115 1.213 1.323 1.985l-1.562.662a2.794 2.794 0 0 0-.772-1.324c-.38-.367-.913-.551-1.599-.551ZM108.842 107.709h-4.98v-1.507h4.98v1.507ZM100.288 100.597v2.793h1.911v1.562h-1.911v4.594c0 .417.092.723.276.919.196.196.514.294.955.294.258 0 .484-.024.68-.073v1.47c-.294.11-.686.165-1.176.165-.759 0-1.36-.22-1.8-.661-.442-.441-.662-1.06-.662-1.856v-4.852H96.87v-1.562h.478c.453 0 .79-.122 1.01-.367.233-.258.35-.589.35-.993v-1.433h1.58ZM87.57 112.229l3.289-4.502-3.18-4.337h2.096l2.168 3.106 2.132-3.106h2.04l-3.143 4.337c.184.233.73.98 1.636 2.242a380.771 380.771 0 0 1 1.617 2.26H94.15l-2.28-3.252-2.241 3.252H87.57ZM80.106 106.9h4.834c-.025-.662-.245-1.201-.662-1.617-.417-.429-1.005-.643-1.764-.643-.686 0-1.25.226-1.69.68-.442.441-.68.967-.718 1.58Zm5.09 2.297 1.49.515a3.962 3.962 0 0 1-1.434 2.021c-.698.515-1.544.772-2.536.772-1.237 0-2.291-.423-3.16-1.268-.858-.858-1.287-2.009-1.287-3.455 0-1.348.416-2.462 1.25-3.344.832-.883 1.825-1.324 2.976-1.324 1.336 0 2.377.423 3.124 1.268.748.833 1.121 1.954 1.121 3.363 0 .221-.012.405-.036.552H80.05c.013.784.27 1.427.772 1.929.515.503 1.146.754 1.893.754 1.262 0 2.089-.594 2.48-1.783ZM74.858 100.597v2.793h1.912v1.562h-1.912v4.594c0 .417.092.723.276.919.196.196.515.294.956.294.257 0 .484-.024.68-.073v1.47c-.294.11-.686.165-1.176.165-.76 0-1.36-.22-1.801-.661-.442-.441-.662-1.06-.662-1.856v-4.852h-1.69v-1.562h.477c.453 0 .79-.122 1.01-.367.234-.258.35-.589.35-.993v-1.433h1.58Z" fill="#F43F5E"/><path fill-rule="evenodd" clip-rule="evenodd" d="M65.28 102.986c.261.261.261.684 0 .945l-5.847 5.847a.668.668 0 0 1-.945-.945l5.847-5.847a.668.668 0 0 1 .946 0Z" fill="#EF4444"/><path fill-rule="evenodd" clip-rule="evenodd" d="M58.488 102.986a.668.668 0 0 1 .945 0l5.848 5.847a.668.668 0 0 1-.946.945l-5.847-5.847a.668.668 0 0 1 0-.945Z" fill="#EF4444"/><path d="M121.577 135.521v5.109h-1.728v-8.839h1.691v1.268c.588-1.017 1.494-1.526 2.72-1.526 1.016 0 1.794.325 2.333.974.552.65.827 1.489.827 2.518v5.605h-1.727v-5.311c0-1.482-.686-2.224-2.058-2.224-.65 0-1.158.233-1.526.699-.355.453-.532 1.029-.532 1.727ZM116.91 140.63h-1.709v-8.839h1.709v8.839Zm-1.746-11.302a1.238 1.238 0 0 1-.349-.882c0-.343.117-.637.349-.882.245-.245.539-.368.882-.368.343 0 .638.123.883.368.245.233.367.527.367.882 0 .343-.122.637-.367.882-.245.233-.54.349-.883.349-.343 0-.637-.116-.882-.349ZM103.934 141.108l1.672-.386c.061.625.312 1.139.753 1.544.442.416.993.624 1.654.624 1.801 0 2.702-.955 2.702-2.866v-1.268c-.221.428-.57.778-1.048 1.047-.465.27-1.017.404-1.654.404-1.176 0-2.15-.398-2.922-1.194-.759-.809-1.139-1.838-1.139-3.087 0-1.213.38-2.23 1.139-3.051.76-.833 1.734-1.25 2.922-1.25 1.348 0 2.255.466 2.72 1.397v-1.231h1.709v8.177a5.36 5.36 0 0 1-.239 1.636 4.185 4.185 0 0 1-.716 1.415c-.331.429-.797.766-1.397 1.011-.588.245-1.28.367-2.077.367-1.09 0-2.015-.312-2.775-.937-.759-.612-1.194-1.397-1.304-2.352Zm4.337-2.352c.747 0 1.353-.258 1.819-.772.466-.527.698-1.213.698-2.058 0-.846-.232-1.526-.698-2.04-.466-.527-1.072-.791-1.819-.791-.76 0-1.379.258-1.856.772-.466.515-.699 1.201-.699 2.059 0 .869.227 1.562.68 2.076.466.502 1.091.754 1.875.754ZM102.825 131.699v1.838a5.284 5.284 0 0 0-.753-.056c-1.617 0-2.426.907-2.426 2.72v4.429H97.92v-8.839h1.69v1.543c.54-1.127 1.422-1.69 2.647-1.69.196 0 .386.018.569.055ZM87.748 138.259c0-.759.245-1.366.736-1.819.49-.465 1.139-.753 1.947-.864l2.39-.349c.453-.061.68-.282.68-.661 0-.466-.16-.846-.478-1.14-.319-.294-.797-.441-1.434-.441-.588 0-1.053.166-1.397.496-.342.319-.545.748-.606 1.287l-1.654-.386c.086-.845.472-1.532 1.158-2.058.686-.539 1.507-.809 2.462-.809 1.25 0 2.175.306 2.775.919.6.6.9 1.372.9 2.315v4.429c0 .527.038 1.011.111 1.452h-1.69a7.277 7.277 0 0 1-.093-1.194c-.245.392-.606.735-1.084 1.029-.465.294-1.053.441-1.764.441-.87 0-1.58-.258-2.132-.772-.55-.527-.827-1.152-.827-1.875Zm3.198 1.195c.772 0 1.39-.208 1.856-.625.466-.416.698-1.078.698-1.985v-.404l-2.701.404c-.392.062-.705.203-.937.423-.233.221-.35.521-.35.901 0 .343.13.643.386.9.27.257.62.386 1.048.386ZM74.252 140.63h-1.709v-8.839h1.654v1.176c.27-.466.65-.821 1.14-1.066a3.409 3.409 0 0 1 1.543-.368c.576 0 1.103.141 1.58.423.478.282.833.698 1.066 1.25.613-1.115 1.599-1.673 2.959-1.673.845 0 1.562.288 2.15.864.6.576.9 1.409.9 2.499v5.734h-1.709v-5.55c0-.612-.159-1.102-.477-1.47-.307-.367-.772-.551-1.397-.551-.6 0-1.09.214-1.47.643-.38.416-.57.943-.57 1.58v5.348h-1.727v-5.55c0-.612-.16-1.102-.478-1.47-.306-.367-.772-.551-1.397-.551-.612 0-1.109.208-1.488.625-.38.416-.57.955-.57 1.617v5.329Z" fill="#F43F5E"/><path fill-rule="evenodd" clip-rule="evenodd" d="M65.28 131.387c.261.261.261.684 0 .945l-5.847 5.847a.668.668 0 0 1-.945-.945l5.847-5.847a.668.668 0 0 1 .946 0Z" fill="#EF4444"/><path fill-rule="evenodd" clip-rule="evenodd" d="M58.488 131.387a.668.668 0 0 1 .945 0l5.848 5.847a.668.668 0 0 1-.946.945l-5.847-5.847a.668.668 0 0 1 0-.945Z" fill="#EF4444"/><path d="m128.987 169.509 1.672-.386c.061.624.312 1.139.753 1.543.441.417.993.625 1.654.625 1.801 0 2.702-.956 2.702-2.867v-1.268c-.221.429-.57.778-1.048 1.048-.465.269-1.017.404-1.654.404-1.176 0-2.15-.398-2.922-1.194-.759-.809-1.139-1.838-1.139-3.088 0-1.213.38-2.23 1.139-3.05.76-.833 1.734-1.25 2.922-1.25 1.348 0 2.254.466 2.72 1.397v-1.232h1.709v8.178a5.4 5.4 0 0 1-.239 1.636 4.179 4.179 0 0 1-.717 1.415c-.33.428-.796.765-1.396 1.01-.588.245-1.28.368-2.077.368-1.09 0-2.015-.312-2.775-.937-.759-.613-1.194-1.397-1.304-2.352Zm4.337-2.353c.747 0 1.353-.257 1.819-.772.465-.526.698-1.212.698-2.058 0-.845-.233-1.525-.698-2.04-.466-.526-1.072-.79-1.819-.79-.76 0-1.379.257-1.857.772-.465.515-.698 1.201-.698 2.058 0 .87.227 1.562.68 2.077.466.502 1.09.753 1.875.753ZM121.038 163.922v5.109h-1.727v-8.84h1.69v1.268c.588-1.016 1.495-1.525 2.72-1.525 1.017 0 1.795.325 2.334.974.551.649.827 1.489.827 2.518v5.605h-1.727v-5.311c0-1.483-.687-2.224-2.059-2.224-.649 0-1.157.233-1.525.698-.355.454-.533 1.03-.533 1.728ZM116.372 169.031h-1.709v-8.84h1.709v8.84Zm-1.746-11.302a1.234 1.234 0 0 1-.349-.882c0-.343.116-.637.349-.882.245-.245.539-.368.882-.368.343 0 .637.123.882.368.245.232.368.527.368.882 0 .343-.123.637-.368.882a1.234 1.234 0 0 1-.882.349c-.343 0-.637-.116-.882-.349ZM104.888 164.583c0 .932.227 1.691.68 2.279.466.588 1.103.882 1.911.882.772 0 1.391-.3 1.856-.9.466-.6.699-1.366.699-2.297 0-.919-.227-1.66-.68-2.224-.454-.563-1.072-.845-1.856-.845s-1.415.288-1.893.864c-.478.575-.717 1.323-.717 2.241Zm5.164 3.253v-.147c-.233.453-.588.833-1.066 1.14-.465.294-1.023.441-1.672.441-1.262 0-2.279-.441-3.051-1.324-.759-.894-1.139-2.015-1.139-3.363 0-1.286.392-2.376 1.176-3.271.784-.906 1.789-1.359 3.014-1.359.723 0 1.311.147 1.764.441.453.281.766.63.937 1.047v-5.715h1.709v11.669c0 .6.031 1.146.092 1.636h-1.672a6.896 6.896 0 0 1-.092-1.195ZM94.085 164.583c0 .932.226 1.691.68 2.279.465.588 1.102.882 1.91.882.773 0 1.391-.3 1.857-.9.465-.6.698-1.366.698-2.297 0-.919-.227-1.66-.68-2.224-.453-.563-1.072-.845-1.856-.845s-1.415.288-1.893.864c-.478.575-.716 1.323-.716 2.241Zm5.164 3.253v-.147c-.233.453-.588.833-1.066 1.14-.466.294-1.023.441-1.673.441-1.261 0-2.278-.441-3.05-1.324-.76-.894-1.14-2.015-1.14-3.363 0-1.286.393-2.376 1.177-3.271.784-.906 1.788-1.359 3.013-1.359.723 0 1.311.147 1.765.441.453.281.765.63.937 1.047v-5.715h1.709v11.669c0 .6.03 1.146.092 1.636H99.34a6.877 6.877 0 0 1-.091-1.195ZM82.885 166.66c0-.76.245-1.366.735-1.819.49-.466 1.14-.754 1.948-.864l2.39-.349c.453-.061.68-.282.68-.662 0-.465-.16-.845-.479-1.139-.318-.294-.796-.441-1.433-.441-.588 0-1.054.165-1.397.496-.343.319-.545.747-.606 1.286l-1.654-.385c.086-.846.472-1.532 1.158-2.059.686-.539 1.507-.808 2.462-.808 1.25 0 2.175.306 2.775.919.6.6.9 1.372.9 2.315v4.429c0 .527.037 1.011.11 1.452h-1.69a7.292 7.292 0 0 1-.092-1.195c-.245.392-.606.735-1.084 1.029-.466.294-1.054.441-1.764.441-.87 0-1.58-.257-2.132-.771-.551-.527-.827-1.152-.827-1.875Zm3.198 1.195c.772 0 1.39-.209 1.856-.625.465-.417.698-1.078.698-1.985v-.404l-2.701.404c-.392.061-.705.202-.938.423-.232.22-.349.52-.349.9 0 .343.129.643.386.901.27.257.619.386 1.048.386ZM74.252 172.522h-1.709v-12.331h1.672v1.379c.257-.466.644-.846 1.158-1.14.515-.294 1.115-.441 1.8-.441 1.275 0 2.267.435 2.978 1.305.723.87 1.084 1.972 1.084 3.308 0 1.347-.373 2.462-1.12 3.344-.736.883-1.734 1.324-2.996 1.324-.65 0-1.225-.135-1.728-.405-.502-.269-.882-.612-1.139-1.029v4.686Zm5.22-7.92c0-.894-.24-1.63-.718-2.205-.465-.588-1.096-.882-1.892-.882-.784 0-1.422.294-1.912.882-.478.575-.716 1.311-.716 2.205 0 .919.239 1.672.716 2.26.49.576 1.127.864 1.912.864.784 0 1.415-.288 1.892-.864.478-.588.717-1.341.717-2.26Z" fill="#F43F5E"/><path fill-rule="evenodd" clip-rule="evenodd" d="M65.28 159.787c.261.261.261.684 0 .945l-5.847 5.848a.668.668 0 0 1-.945-.945l5.847-5.848a.668.668 0 0 1 .946 0Z" fill="#EF4444"/><path fill-rule="evenodd" clip-rule="evenodd" d="M58.488 159.787a.668.668 0 0 1 .945 0l5.848 5.848a.668.668 0 0 1-.946.945l-5.847-5.848a.668.668 0 0 1 0-.945Z" fill="#EF4444"/><path d="M210.196 192.984c0 .931.227 1.691.68 2.279.466.588 1.103.882 1.911.882.772 0 1.391-.3 1.857-.9.465-.601.698-1.367.698-2.298 0-.918-.227-1.66-.68-2.223-.453-.564-1.072-.846-1.856-.846s-1.415.288-1.893.864c-.478.576-.717 1.323-.717 2.242Zm5.164 3.253v-.147c-.233.453-.588.833-1.066 1.139-.465.294-1.023.441-1.672.441-1.262 0-2.279-.441-3.051-1.323-.759-.894-1.139-2.015-1.139-3.363 0-1.286.392-2.377 1.176-3.271.784-.907 1.789-1.36 3.014-1.36.723 0 1.311.147 1.764.441.454.282.766.631.937 1.048v-5.716h1.71v11.67c0 .6.03 1.145.091 1.635h-1.672a6.884 6.884 0 0 1-.092-1.194ZM200.575 192.323v5.108h-1.727v-8.839h1.691v1.268c.588-1.017 1.494-1.525 2.719-1.525 1.017 0 1.795.324 2.334.974.552.649.827 1.488.827 2.517v5.605h-1.727v-5.311c0-1.482-.686-2.223-2.058-2.223-.65 0-1.158.233-1.526.698-.355.453-.533 1.029-.533 1.728ZM194.265 196.366a2.31 2.31 0 0 1-1.066 1.01 3.632 3.632 0 0 1-1.544.331c-1.004 0-1.807-.331-2.407-.992-.6-.674-.901-1.526-.901-2.555v-5.568h1.728v5.311c0 .662.159 1.207.478 1.636.33.428.839.643 1.525.643.686 0 1.207-.202 1.562-.607.355-.416.533-.968.533-1.654v-5.329h1.727v7.204c0 .576.031 1.121.092 1.635h-1.654a6.187 6.187 0 0 1-.073-1.065ZM179.832 195.336a2.643 2.643 0 0 0 1.966.827c.772 0 1.421-.275 1.948-.827.539-.563.809-1.341.809-2.333 0-.981-.27-1.746-.809-2.298a2.563 2.563 0 0 0-1.948-.845 2.62 2.62 0 0 0-1.966.845c-.527.552-.79 1.317-.79 2.298 0 .992.263 1.77.79 2.333Zm-1.286-5.678c.857-.894 1.941-1.342 3.252-1.342 1.311 0 2.389.448 3.235 1.342.857.882 1.286 1.997 1.286 3.345 0 1.359-.423 2.487-1.268 3.381-.845.882-1.93 1.323-3.253 1.323-1.323 0-2.407-.441-3.252-1.323-.846-.894-1.268-2.022-1.268-3.381 0-1.348.422-2.463 1.268-3.345ZM176.261 188.5v1.838a5.28 5.28 0 0 0-.753-.055c-1.617 0-2.426.906-2.426 2.72v4.428h-1.727v-8.839h1.69v1.544c.539-1.127 1.421-1.691 2.647-1.691.196 0 .385.018.569.055ZM160.087 197.909l1.673-.386c.061.625.312 1.14.753 1.544.441.416.993.625 1.654.625 1.801 0 2.701-.956 2.701-2.867v-1.268c-.22.429-.569.778-1.047 1.047-.466.27-1.017.405-1.654.405-1.176 0-2.15-.398-2.922-1.195-.759-.808-1.139-1.837-1.139-3.087 0-1.213.38-2.23 1.139-3.051.76-.833 1.734-1.249 2.922-1.249 1.348 0 2.254.465 2.72 1.396v-1.231h1.709v8.178c0 .588-.08 1.133-.239 1.635a4.16 4.16 0 0 1-.717 1.415c-.33.429-.796.766-1.396 1.011-.588.245-1.281.368-2.077.368-1.09 0-2.015-.313-2.775-.938-.759-.612-1.194-1.396-1.305-2.352Zm4.337-2.352c.748 0 1.354-.257 1.82-.772.465-.527.698-1.213.698-2.058 0-.845-.233-1.525-.698-2.04-.466-.527-1.072-.79-1.82-.79-.759 0-1.378.257-1.856.772-.465.514-.698 1.2-.698 2.058 0 .87.227 1.562.68 2.076.465.503 1.09.754 1.874.754ZM159.462 188.592l-3.767 3.731 3.841 5.108h-2.169l-2.885-3.896-1.231 1.232v2.664h-1.709v-13.305h1.709v8.38l3.822-3.914h2.389ZM145.509 189.915c-.747 0-1.384.27-1.911.809-.514.539-.772 1.298-.772 2.279 0 .967.258 1.727.772 2.278.527.552 1.17.827 1.93.827.735 0 1.292-.184 1.672-.551.392-.368.655-.79.79-1.268l1.526.661c-.246.736-.711 1.379-1.397 1.93-.674.551-1.538.827-2.591.827-1.287 0-2.353-.447-3.198-1.342-.845-.894-1.268-2.015-1.268-3.362 0-1.373.423-2.494 1.268-3.363.845-.883 1.905-1.324 3.179-1.324 1.078 0 1.948.276 2.61.827.674.552 1.115 1.213 1.323 1.985l-1.562.662a2.786 2.786 0 0 0-.772-1.323c-.38-.368-.913-.552-1.599-.552ZM131.627 195.061c0-.76.245-1.366.735-1.82.49-.465 1.139-.753 1.948-.863l2.389-.349c.453-.062.68-.282.68-.662 0-.466-.16-.845-.478-1.139-.319-.294-.796-.441-1.434-.441-.588 0-1.053.165-1.396.496-.343.318-.545.747-.607 1.286l-1.654-.386c.086-.845.472-1.531 1.158-2.058.686-.539 1.507-.809 2.463-.809 1.249 0 2.174.307 2.775.919.6.601.9 1.372.9 2.316v4.429c0 .526.037 1.01.11 1.451h-1.69a7.183 7.183 0 0 1-.092-1.194c-.245.392-.607.735-1.084 1.029-.466.294-1.054.441-1.765.441-.869 0-1.58-.257-2.131-.772-.552-.527-.827-1.151-.827-1.874Zm3.197 1.194c.772 0 1.391-.208 1.856-.625.466-.416.699-1.078.699-1.984v-.405l-2.702.405c-.392.061-.704.202-.937.422-.233.221-.349.521-.349.901 0 .343.129.643.386.9.269.258.618.386 1.047.386ZM122.994 197.431h-1.709v-13.305h1.709v5.716c.232-.429.6-.784 1.102-1.066.515-.294 1.121-.441 1.82-.441 1.286 0 2.284.435 2.995 1.305.711.869 1.066 1.978 1.066 3.326 0 1.36-.368 2.487-1.103 3.381-.735.882-1.739 1.323-3.014 1.323-1.323 0-2.278-.508-2.866-1.525v1.286Zm4.502-2.168c.478-.576.717-1.342.717-2.297 0-.956-.239-1.709-.717-2.261-.466-.563-1.097-.845-1.893-.845-.772 0-1.403.282-1.893.845-.49.564-.735 1.317-.735 2.261 0 .943.245 1.709.735 2.297.49.576 1.121.864 1.893.864.784 0 1.415-.288 1.893-.864ZM118.982 192.911h-4.981v-1.507h4.981v1.507ZM112.803 188.5v1.838a5.28 5.28 0 0 0-.753-.055c-1.617 0-2.426.906-2.426 2.72v4.428h-1.727v-8.839h1.69v1.544c.539-1.127 1.422-1.691 2.647-1.691.196 0 .386.018.569.055ZM99.2 195.336a2.644 2.644 0 0 0 1.966.827c.772 0 1.421-.275 1.948-.827.539-.563.809-1.341.809-2.333 0-.981-.27-1.746-.809-2.298a2.563 2.563 0 0 0-1.948-.845 2.62 2.62 0 0 0-1.966.845c-.527.552-.79 1.317-.79 2.298 0 .992.263 1.77.79 2.333Zm-1.287-5.678c.858-.894 1.942-1.342 3.253-1.342 1.311 0 2.389.448 3.234 1.342.858.882 1.287 1.997 1.287 3.345 0 1.359-.423 2.487-1.268 3.381-.846.882-1.93 1.323-3.253 1.323-1.323 0-2.407-.441-3.253-1.323-.845-.894-1.268-2.022-1.268-3.381 0-1.348.423-2.463 1.268-3.345ZM94.442 197.431h-1.728v-13.305h1.728v13.305ZM84.017 195.336a2.644 2.644 0 0 0 1.967.827c.771 0 1.42-.275 1.947-.827.54-.563.809-1.341.809-2.333 0-.981-.27-1.746-.809-2.298a2.563 2.563 0 0 0-1.947-.845 2.62 2.62 0 0 0-1.967.845c-.527.552-.79 1.317-.79 2.298 0 .992.263 1.77.79 2.333Zm-1.286-5.678c.857-.894 1.942-1.342 3.253-1.342 1.31 0 2.389.448 3.234 1.342.857.882 1.286 1.997 1.286 3.345 0 1.359-.422 2.487-1.268 3.381-.845.882-1.93 1.323-3.252 1.323-1.324 0-2.408-.441-3.253-1.323-.846-.894-1.268-2.022-1.268-3.381 0-1.348.422-2.463 1.268-3.345ZM76.255 189.915c-.747 0-1.384.27-1.911.809-.515.539-.772 1.298-.772 2.279 0 .967.257 1.727.772 2.278.527.552 1.17.827 1.93.827.734 0 1.292-.184 1.672-.551a2.74 2.74 0 0 0 .79-1.268l1.525.661c-.245.736-.71 1.379-1.396 1.93-.674.551-1.538.827-2.592.827-1.286 0-2.352-.447-3.197-1.342-.846-.894-1.268-2.015-1.268-3.362 0-1.373.422-2.494 1.268-3.363.845-.883 1.905-1.324 3.179-1.324 1.078 0 1.948.276 2.61.827.673.552 1.114 1.213 1.323 1.985l-1.562.662a2.786 2.786 0 0 0-.772-1.323c-.38-.368-.913-.552-1.599-.552Z" fill="#10B981"/><path fill-rule="evenodd" clip-rule="evenodd" d="M66.255 188.188c.26.261.26.684 0 .945l-5.36 5.36a.668.668 0 0 1-.945 0l-2.436-2.436a.668.668 0 1 1 .945-.945l1.963 1.963 4.888-4.887a.668.668 0 0 1 .945 0Z" fill="#22C55E"/><path d="M413.086 169.031h-1.727v-13.305h1.727v13.305ZM401.189 166.66c0-.759.245-1.366.735-1.819.49-.466 1.139-.754 1.948-.864l2.389-.349c.453-.061.68-.282.68-.662 0-.465-.16-.845-.478-1.139-.319-.294-.797-.441-1.434-.441-.588 0-1.053.165-1.396.496-.343.319-.545.747-.607 1.286l-1.654-.385c.086-.846.472-1.532 1.158-2.059.686-.539 1.507-.808 2.463-.808 1.249 0 2.174.306 2.775.919.6.6.9 1.372.9 2.315v4.429c0 .527.037 1.011.11 1.452h-1.69a7.204 7.204 0 0 1-.092-1.195c-.245.392-.607.735-1.085 1.029-.465.294-1.053.441-1.764.441-.87 0-1.58-.257-2.131-.771-.552-.527-.827-1.152-.827-1.875Zm3.197 1.195c.772 0 1.391-.209 1.856-.625.466-.417.699-1.078.699-1.985v-.404l-2.702.404c-.392.061-.704.202-.937.423-.233.22-.349.52-.349.9 0 .343.128.643.386.901.269.257.618.386 1.047.386ZM399.899 160.1v1.837a5.304 5.304 0 0 0-.754-.055c-1.617 0-2.426.907-2.426 2.72v4.429h-1.727v-8.84h1.691v1.544c.539-1.127 1.421-1.691 2.646-1.691.196 0 .386.019.57.056ZM390.955 157.398v2.793h1.911v1.562h-1.911v4.595c0 .416.091.722.275.919.196.196.515.294.956.294.257 0 .484-.025.68-.074v1.47c-.294.11-.686.166-1.176.166-.76 0-1.36-.221-1.801-.662-.441-.441-.662-1.06-.662-1.856v-4.852h-1.691v-1.562h.478c.454 0 .791-.122 1.011-.367.233-.257.349-.588.349-.992v-1.434h1.581ZM384.056 167.965a2.311 2.311 0 0 1-1.066 1.011 3.65 3.65 0 0 1-1.544.33c-1.004 0-1.807-.33-2.407-.992-.601-.674-.901-1.525-.901-2.554v-5.569h1.728v5.311c0 .662.159 1.207.478 1.636.33.429.839.643 1.525.643.686 0 1.207-.202 1.562-.606.355-.417.533-.968.533-1.654v-5.33h1.727v7.204c0 .576.031 1.121.092 1.636h-1.654a6.208 6.208 0 0 1-.073-1.066ZM369.66 163.701h4.834c-.025-.661-.245-1.2-.662-1.617-.417-.429-1.005-.643-1.764-.643-.686 0-1.25.227-1.691.68a2.37 2.37 0 0 0-.717 1.58Zm5.091 2.298 1.488.514a3.964 3.964 0 0 1-1.433 2.022c-.698.514-1.544.771-2.536.771-1.237 0-2.291-.422-3.161-1.268-.857-.857-1.286-2.009-1.286-3.455 0-1.347.416-2.462 1.249-3.344.833-.882 1.826-1.323 2.977-1.323 1.336 0 2.377.422 3.125 1.268.747.833 1.121 1.954 1.121 3.363 0 .22-.013.404-.037.551h-6.653c.013.784.27 1.427.772 1.93.515.502 1.146.753 1.893.753 1.262 0 2.089-.594 2.481-1.782ZM359.948 163.922v5.109h-1.728v-8.84h1.691v1.268c.588-1.016 1.495-1.525 2.72-1.525 1.017 0 1.795.325 2.334.974.551.649.827 1.489.827 2.518v5.605h-1.728v-5.311c0-1.483-.686-2.224-2.058-2.224-.649 0-1.158.233-1.525.698-.356.454-.533 1.03-.533 1.728Z" fill="#10B981"/><path fill-rule="evenodd" clip-rule="evenodd" d="M351.932 159.787a.668.668 0 0 1 0 .945l-5.36 5.36a.668.668 0 0 1-.945 0l-2.436-2.436a.668.668 0 1 1 .945-.945l1.964 1.964 4.887-4.888a.668.668 0 0 1 .945 0Z" fill="#22C55E"/><path d="M549.493 131.699v1.838a5.284 5.284 0 0 0-.753-.056c-1.618 0-2.426.907-2.426 2.72v4.429h-1.728v-8.839h1.691v1.543c.539-1.127 1.421-1.69 2.646-1.69.196 0 .386.018.57.055ZM535.747 135.301h4.834c-.025-.662-.245-1.201-.662-1.617-.417-.429-1.005-.644-1.764-.644-.686 0-1.25.227-1.691.68a2.37 2.37 0 0 0-.717 1.581Zm5.091 2.297 1.488.514a3.964 3.964 0 0 1-1.433 2.022c-.698.514-1.544.772-2.536.772-1.237 0-2.291-.423-3.161-1.268-.857-.858-1.286-2.01-1.286-3.455 0-1.348.416-2.463 1.249-3.345.834-.882 1.826-1.323 2.977-1.323 1.336 0 2.377.423 3.125 1.268.747.833 1.121 1.954 1.121 3.363 0 .221-.013.404-.037.551h-6.653c.013.784.27 1.428.772 1.93.515.502 1.146.753 1.893.753 1.262 0 2.089-.594 2.481-1.782ZM523.359 141.108l1.672-.386c.062.625.313 1.139.754 1.544.441.416.992.624 1.654.624 1.801 0 2.701-.955 2.701-2.866v-1.268c-.22.428-.57.778-1.047 1.047-.466.27-1.017.404-1.654.404-1.176 0-2.15-.398-2.922-1.194-.76-.809-1.14-1.838-1.14-3.087 0-1.213.38-2.23 1.14-3.051.759-.833 1.733-1.25 2.922-1.25 1.347 0 2.254.466 2.719 1.397v-1.231h1.71v8.177a5.39 5.39 0 0 1-.239 1.636 4.17 4.17 0 0 1-.717 1.415c-.331.429-.796.766-1.397 1.011-.588.245-1.28.367-2.076.367-1.091 0-2.016-.312-2.775-.937-.76-.612-1.195-1.397-1.305-2.352Zm4.337-2.352c.747 0 1.354-.258 1.819-.772.466-.527.699-1.213.699-2.058 0-.846-.233-1.526-.699-2.04-.465-.527-1.072-.791-1.819-.791-.76 0-1.378.258-1.856.772-.466.515-.698 1.201-.698 2.059 0 .869.226 1.562.68 2.076.465.502 1.09.754 1.874.754ZM515.411 135.521v5.109h-1.728v-8.839h1.691v1.268c.588-1.017 1.495-1.526 2.72-1.526 1.017 0 1.794.325 2.334.974.551.65.827 1.489.827 2.518v5.605h-1.728v-5.311c0-1.482-.686-2.224-2.058-2.224-.649 0-1.158.233-1.525.699-.356.453-.533 1.029-.533 1.727ZM504.986 138.535a2.648 2.648 0 0 0 1.966.827c.772 0 1.422-.276 1.948-.827.539-.563.809-1.341.809-2.334 0-.98-.27-1.746-.809-2.297a2.561 2.561 0 0 0-1.948-.845c-.771 0-1.427.282-1.966.845-.527.551-.79 1.317-.79 2.297 0 .993.263 1.771.79 2.334Zm-1.286-5.678c.857-.895 1.942-1.342 3.252-1.342 1.311 0 2.389.447 3.235 1.342.857.882 1.286 1.997 1.286 3.344 0 1.36-.422 2.487-1.268 3.382-.845.882-1.929 1.323-3.253 1.323-1.323 0-2.407-.441-3.252-1.323-.846-.895-1.268-2.022-1.268-3.382 0-1.347.422-2.462 1.268-3.344ZM501.415 131.699v1.838a5.284 5.284 0 0 0-.753-.056c-1.617 0-2.426.907-2.426 2.72v4.429h-1.727v-8.839h1.69v1.543c.539-1.127 1.421-1.69 2.647-1.69.196 0 .386.018.569.055ZM492.471 128.997v2.794h1.911v1.562h-1.911v4.594c0 .417.092.723.276.919.196.196.514.294.955.294.258 0 .484-.025.68-.074v1.471c-.294.11-.686.165-1.176.165-.759 0-1.36-.221-1.801-.662-.441-.441-.661-1.059-.661-1.856v-4.851h-1.691v-1.562h.478c.453 0 .79-.123 1.011-.368.232-.257.349-.588.349-.992v-1.434h1.58ZM481.02 138.333l1.562-.551c.061.477.269.876.625 1.194.355.306.833.46 1.433.46.465 0 .833-.111 1.103-.331.269-.233.404-.515.404-.846 0-.588-.38-.967-1.14-1.139l-1.506-.331c-.687-.147-1.226-.441-1.618-.882-.392-.441-.588-.974-.588-1.599 0-.759.307-1.415.919-1.966.625-.551 1.366-.827 2.224-.827.563 0 1.066.086 1.507.257.441.16.784.374 1.029.644.245.269.429.52.551.753.123.233.214.472.276.717l-1.526.569a1.662 1.662 0 0 0-.128-.422 2.077 2.077 0 0 0-.294-.478 1.204 1.204 0 0 0-.552-.404 2.073 2.073 0 0 0-.863-.166c-.429 0-.784.117-1.066.349-.27.233-.404.509-.404.827 0 .564.337.919 1.01 1.066l1.434.313c.784.171 1.384.49 1.801.955.428.454.643 1.011.643 1.673 0 .698-.288 1.329-.864 1.892-.563.564-1.354.846-2.37.846-1.091 0-1.942-.27-2.555-.809-.612-.551-.962-1.139-1.047-1.764Z" fill="#10B981"/><path fill-rule="evenodd" clip-rule="evenodd" d="M475.559 131.387a.668.668 0 0 1 0 .945l-5.36 5.36a.668.668 0 0 1-.945 0l-2.437-2.437a.668.668 0 1 1 .945-.945l1.964 1.964 4.888-4.887a.668.668 0 0 1 .945 0Z" fill="#22C55E"/><path d="m523.739 160.191-3.767 3.731 3.841 5.109h-2.169l-2.885-3.896-1.231 1.231v2.665h-1.709v-13.305h1.709v8.38l3.822-3.915h2.389ZM505.648 166.66c0-.759.245-1.366.735-1.819.49-.466 1.14-.754 1.948-.864l2.389-.349c.454-.061.68-.282.68-.662 0-.465-.159-.845-.478-1.139-.318-.294-.796-.441-1.433-.441-.588 0-1.054.165-1.397.496-.343.319-.545.747-.606 1.286l-1.654-.385c.086-.846.472-1.532 1.158-2.059.686-.539 1.507-.808 2.462-.808 1.25 0 2.175.306 2.775.919.601.6.901 1.372.901 2.315v4.429c0 .527.036 1.011.11 1.452h-1.691a7.313 7.313 0 0 1-.092-1.195c-.245.392-.606.735-1.084 1.029-.465.294-1.053.441-1.764.441-.87 0-1.58-.257-2.132-.771-.551-.527-.827-1.152-.827-1.875Zm3.198 1.195c.772 0 1.39-.209 1.856-.625.466-.417.698-1.078.698-1.985v-.404l-2.701.404c-.392.061-.705.202-.937.423-.233.22-.35.52-.35.9 0 .343.129.643.386.901.27.257.619.386 1.048.386ZM497.361 163.701h4.833c-.025-.661-.245-1.2-.662-1.617-.416-.429-1.005-.643-1.764-.643-.686 0-1.25.227-1.691.68-.441.441-.68.968-.716 1.58Zm5.09 2.298 1.488.514a3.964 3.964 0 0 1-1.433 2.022c-.698.514-1.544.771-2.536.771-1.237 0-2.291-.422-3.161-1.268-.857-.857-1.286-2.009-1.286-3.455 0-1.347.416-2.462 1.249-3.344.834-.882 1.826-1.323 2.978-1.323 1.335 0 2.376.422 3.124 1.268.747.833 1.121 1.954 1.121 3.363 0 .22-.013.404-.037.551h-6.653c.013.784.27 1.427.772 1.93.515.502 1.146.753 1.893.753 1.262 0 2.089-.594 2.481-1.782ZM486.827 160.191h1.782l2.297 6.653 1.948-6.653h1.82l-2.867 8.84h-1.783l-2.352-6.726-2.297 6.726h-1.819l-2.904-8.84h1.893l1.985 6.653 2.297-6.653Z" fill="#10B981"/><path fill-rule="evenodd" clip-rule="evenodd" d="M475.559 159.787a.668.668 0 0 1 0 .945l-5.36 5.36a.668.668 0 0 1-.945 0l-2.437-2.436a.668.668 0 1 1 .945-.945l1.964 1.964 4.888-4.888a.668.668 0 0 1 .945 0Z" fill="#22C55E"/><path d="M539.874 188.5v1.838a5.28 5.28 0 0 0-.753-.055c-1.618 0-2.426.906-2.426 2.72v4.428h-1.728v-8.839h1.691v1.544c.539-1.127 1.421-1.691 2.646-1.691.196 0 .386.018.57.055ZM526.128 192.102h4.833c-.024-.662-.245-1.201-.661-1.617-.417-.429-1.005-.643-1.764-.643-.686 0-1.25.226-1.691.68-.441.441-.68.967-.717 1.58Zm5.091 2.297 1.488.515a3.961 3.961 0 0 1-1.433 2.021c-.699.515-1.544.772-2.536.772-1.238 0-2.291-.423-3.161-1.268-.858-.858-1.286-2.009-1.286-3.455 0-1.347.416-2.462 1.249-3.344.833-.883 1.826-1.324 2.977-1.324 1.336 0 2.377.423 3.124 1.268.748.833 1.121 1.954 1.121 3.363 0 .221-.012.405-.036.552h-6.653c.012.784.27 1.427.772 1.929.514.503 1.145.754 1.893.754 1.262 0 2.089-.594 2.481-1.783ZM523.739 188.592l-3.767 3.731 3.841 5.108h-2.169l-2.885-3.896-1.231 1.232v2.664h-1.709v-13.305h1.709v8.38l3.822-3.914h2.389ZM505.648 195.061c0-.76.245-1.366.735-1.82.49-.465 1.14-.753 1.948-.863l2.389-.349c.454-.062.68-.282.68-.662 0-.466-.159-.845-.478-1.139-.318-.294-.796-.441-1.433-.441-.588 0-1.054.165-1.397.496-.343.318-.545.747-.606 1.286l-1.654-.386c.086-.845.472-1.531 1.158-2.058.686-.539 1.507-.809 2.462-.809 1.25 0 2.175.307 2.775.919.601.601.901 1.372.901 2.316v4.429a8.8 8.8 0 0 0 .11 1.451h-1.691a7.292 7.292 0 0 1-.092-1.194c-.245.392-.606.735-1.084 1.029-.465.294-1.053.441-1.764.441-.87 0-1.58-.257-2.132-.772-.551-.527-.827-1.151-.827-1.874Zm3.198 1.194c.772 0 1.39-.208 1.856-.625.466-.416.698-1.078.698-1.984v-.405l-2.701.405c-.392.061-.705.202-.937.422-.233.221-.35.521-.35.901 0 .343.129.643.386.9.27.258.619.386 1.048.386ZM497.361 192.102h4.833c-.025-.662-.245-1.201-.662-1.617-.416-.429-1.005-.643-1.764-.643-.686 0-1.25.226-1.691.68-.441.441-.68.967-.716 1.58Zm5.09 2.297 1.488.515a3.961 3.961 0 0 1-1.433 2.021c-.698.515-1.544.772-2.536.772-1.237 0-2.291-.423-3.161-1.268-.857-.858-1.286-2.009-1.286-3.455 0-1.347.416-2.462 1.249-3.344.834-.883 1.826-1.324 2.978-1.324 1.335 0 2.376.423 3.124 1.268.747.833 1.121 1.954 1.121 3.363 0 .221-.013.405-.037.552h-6.653c.013.784.27 1.427.772 1.929.515.503 1.146.754 1.893.754 1.262 0 2.089-.594 2.481-1.783ZM486.827 188.592h1.782l2.297 6.653 1.948-6.653h1.82l-2.867 8.839h-1.783l-2.352-6.726-2.297 6.726h-1.819l-2.904-8.839h1.893l1.985 6.653 2.297-6.653Z" fill="#10B981"/><path fill-rule="evenodd" clip-rule="evenodd" d="M475.559 188.188a.668.668 0 0 1 0 .945l-5.36 5.36a.668.668 0 0 1-.945 0l-2.437-2.436a.668.668 0 1 1 .945-.945l1.964 1.963 4.888-4.887a.668.668 0 0 1 .945 0Z" fill="#22C55E"/><path d="m413.511 195.134 1.562-.551c.061.478.27.876.625 1.194.355.307.833.46 1.433.46.466 0 .833-.11 1.103-.331.27-.233.404-.514.404-.845 0-.588-.38-.968-1.139-1.14l-1.507-.33c-.686-.147-1.225-.441-1.617-.882-.392-.442-.588-.974-.588-1.599 0-.76.306-1.415.919-1.967.624-.551 1.366-.827 2.223-.827.564 0 1.066.086 1.507.258.441.159.784.373 1.029.643.245.269.429.521.552.753.122.233.214.472.275.717l-1.525.57a1.684 1.684 0 0 0-.129-.423 2.098 2.098 0 0 0-.294-.478 1.203 1.203 0 0 0-.551-.404 2.094 2.094 0 0 0-.864-.165c-.429 0-.784.116-1.066.349-.269.233-.404.508-.404.827 0 .563.337.919 1.011 1.066l1.433.312c.784.171 1.385.49 1.801.956.429.453.643 1.01.643 1.672 0 .698-.288 1.329-.863 1.893-.564.563-1.354.845-2.371.845-1.09 0-1.942-.269-2.554-.809-.613-.551-.962-1.139-1.048-1.764ZM405.202 195.134l1.562-.551c.061.478.27.876.625 1.194.355.307.833.46 1.433.46.466 0 .833-.11 1.103-.331.269-.233.404-.514.404-.845 0-.588-.38-.968-1.139-1.14l-1.507-.33c-.686-.147-1.225-.441-1.617-.882-.392-.442-.588-.974-.588-1.599 0-.76.306-1.415.919-1.967.624-.551 1.366-.827 2.223-.827.564 0 1.066.086 1.507.258.441.159.784.373 1.029.643.245.269.429.521.551.753.123.233.215.472.276.717l-1.525.57a1.726 1.726 0 0 0-.129-.423 2.098 2.098 0 0 0-.294-.478 1.203 1.203 0 0 0-.551-.404 2.094 2.094 0 0 0-.864-.165c-.429 0-.784.116-1.066.349-.269.233-.404.508-.404.827 0 .563.337.919 1.011 1.066l1.433.312c.784.171 1.384.49 1.801.956.429.453.643 1.01.643 1.672 0 .698-.288 1.329-.863 1.893-.564.563-1.354.845-2.371.845-1.09 0-1.942-.269-2.554-.809-.613-.551-.962-1.139-1.048-1.764ZM397.19 192.102h4.833c-.025-.661-.245-1.201-.662-1.617-.416-.429-1.004-.643-1.764-.643-.686 0-1.249.226-1.69.68a2.37 2.37 0 0 0-.717 1.58Zm5.09 2.297 1.489.515a3.957 3.957 0 0 1-1.434 2.021c-.698.515-1.543.772-2.536.772-1.237 0-2.291-.423-3.16-1.268-.858-.858-1.287-2.009-1.287-3.455 0-1.347.417-2.462 1.25-3.344.833-.883 1.825-1.324 2.977-1.324 1.335 0 2.377.423 3.124 1.268.747.834 1.121 1.955 1.121 3.363 0 .221-.012.405-.037.552h-6.652c.012.784.269 1.427.772 1.929.514.503 1.145.754 1.892.754 1.262 0 2.089-.594 2.481-1.783ZM390.126 189.915c-.747 0-1.384.27-1.911.809-.515.539-.772 1.298-.772 2.279 0 .967.257 1.727.772 2.278.527.552 1.17.827 1.929.827.735 0 1.293-.184 1.673-.551.392-.368.655-.79.79-1.268l1.525.662c-.245.735-.71 1.378-1.396 1.929-.674.551-1.538.827-2.592.827-1.286 0-2.352-.447-3.197-1.341-.846-.895-1.268-2.016-1.268-3.363 0-1.373.422-2.494 1.268-3.363.845-.883 1.905-1.324 3.179-1.324 1.078 0 1.948.276 2.61.827.673.552 1.114 1.213 1.323 1.985l-1.562.662a2.786 2.786 0 0 0-.772-1.323c-.38-.368-.913-.552-1.599-.552ZM380.471 189.915c-.747 0-1.384.27-1.911.809-.515.539-.772 1.298-.772 2.279 0 .967.257 1.727.772 2.278.527.552 1.17.827 1.929.827.735 0 1.293-.184 1.673-.551.392-.368.655-.79.79-1.268l1.525.662c-.245.735-.71 1.378-1.396 1.929-.674.551-1.538.827-2.592.827-1.286 0-2.352-.447-3.197-1.341-.846-.895-1.268-2.016-1.268-3.363 0-1.373.422-2.494 1.268-3.363.845-.883 1.905-1.324 3.179-1.324 1.078 0 1.948.276 2.61.827.673.552 1.114 1.213 1.323 1.985l-1.562.662a2.786 2.786 0 0 0-.772-1.323c-.38-.368-.913-.552-1.599-.552ZM372.265 196.366a2.31 2.31 0 0 1-1.066 1.01 3.63 3.63 0 0 1-1.543.331c-1.005 0-1.808-.331-2.408-.992-.6-.674-.9-1.526-.9-2.555v-5.568h1.727v5.311c0 .662.159 1.207.478 1.636.331.428.839.643 1.525.643.686 0 1.207-.202 1.562-.607.355-.416.533-.968.533-1.654v-5.329h1.728v7.204c0 .576.03 1.121.091 1.635h-1.653a6.172 6.172 0 0 1-.074-1.065ZM357.393 195.134l1.562-.551c.062.478.27.876.625 1.194.355.307.833.46 1.434.46.465 0 .833-.11 1.102-.331.27-.233.404-.514.404-.845 0-.588-.379-.968-1.139-1.14l-1.507-.33c-.686-.147-1.225-.441-1.617-.882-.392-.442-.588-.974-.588-1.599 0-.76.306-1.415.919-1.967.625-.551 1.366-.827 2.223-.827.564 0 1.066.086 1.507.258.441.159.784.373 1.029.643.245.269.429.521.552.753.122.233.214.472.275.717l-1.525.57a1.643 1.643 0 0 0-.129-.423 2.098 2.098 0 0 0-.294-.478 1.203 1.203 0 0 0-.551-.404 2.094 2.094 0 0 0-.864-.165c-.428 0-.784.116-1.065.349-.27.233-.405.508-.405.827 0 .563.337.919 1.011 1.066l1.433.312c.784.171 1.385.49 1.801.956.429.453.644 1.01.644 1.672 0 .698-.288 1.329-.864 1.893-.564.563-1.354.845-2.371.845-1.09 0-1.942-.269-2.554-.809-.613-.551-.962-1.139-1.048-1.764Z" fill="#10B981"/><path fill-rule="evenodd" clip-rule="evenodd" d="M351.932 188.188a.668.668 0 0 1 0 .945l-5.36 5.36a.668.668 0 0 1-.945 0l-2.436-2.436a.668.668 0 1 1 .945-.945l1.964 1.963 4.887-4.887a.668.668 0 0 1 .945 0Z" fill="#22C55E"/><path d="M148.85 214.199v2.794h1.912v1.562h-1.912v4.594c0 .417.092.723.276.919.196.196.515.294.956.294.257 0 .484-.025.68-.074v1.471c-.294.11-.686.165-1.176.165-.76 0-1.36-.221-1.801-.662-.441-.441-.662-1.059-.662-1.856v-4.851h-1.691v-1.562h.478c.453 0 .79-.123 1.011-.368.233-.257.349-.588.349-.992v-1.434h1.58ZM136.132 225.832l3.289-4.502-3.179-4.337h2.095l2.169 3.105 2.131-3.105h2.04l-3.142 4.337c.184.232.729.98 1.635 2.242a335.544 335.544 0 0 1 1.617 2.26h-2.076l-2.279-3.253-2.242 3.253h-2.058ZM128.669 220.503h4.833c-.025-.662-.245-1.201-.662-1.617-.416-.429-1.004-.644-1.764-.644-.686 0-1.249.227-1.69.68a2.37 2.37 0 0 0-.717 1.581Zm5.09 2.297 1.489.514a3.96 3.96 0 0 1-1.434 2.022c-.698.514-1.543.772-2.536.772-1.237 0-2.291-.423-3.16-1.268-.858-.858-1.287-2.01-1.287-3.455 0-1.348.417-2.463 1.25-3.345.833-.882 1.825-1.323 2.977-1.323 1.335 0 2.377.423 3.124 1.268.747.833 1.121 1.954 1.121 3.363 0 .221-.012.404-.037.551h-6.652c.012.784.269 1.428.772 1.93.514.502 1.145.753 1.892.753 1.262 0 2.089-.594 2.481-1.782ZM123.421 214.199v2.794h1.911v1.562h-1.911v4.594c0 .417.092.723.275.919.196.196.515.294.956.294.257 0 .484-.025.68-.074v1.471c-.294.11-.686.165-1.176.165-.76 0-1.36-.221-1.801-.662-.441-.441-.662-1.059-.662-1.856v-4.851h-1.69v-1.562h.477c.454 0 .791-.123 1.011-.368.233-.257.349-.588.349-.992v-1.434h1.581ZM118.982 221.311h-4.981v-1.507h4.981v1.507ZM112.803 216.901v1.838a5.284 5.284 0 0 0-.753-.056c-1.617 0-2.426.907-2.426 2.72v4.429h-1.727v-8.839h1.69v1.543c.539-1.127 1.422-1.69 2.647-1.69.196 0 .386.018.569.055ZM99.2 223.737a2.648 2.648 0 0 0 1.966.827 2.59 2.59 0 0 0 1.948-.827c.539-.563.809-1.341.809-2.334 0-.98-.27-1.746-.809-2.297a2.563 2.563 0 0 0-1.948-.845 2.62 2.62 0 0 0-1.966.845c-.527.551-.79 1.317-.79 2.297 0 .993.263 1.771.79 2.334Zm-1.287-5.678c.858-.895 1.942-1.342 3.253-1.342 1.311 0 2.389.447 3.234 1.342.858.882 1.287 1.997 1.287 3.344 0 1.36-.423 2.487-1.268 3.382-.846.882-1.93 1.323-3.253 1.323-1.323 0-2.407-.441-3.253-1.323-.845-.895-1.268-2.022-1.268-3.382 0-1.347.423-2.462 1.268-3.344ZM94.442 225.832h-1.728v-13.305h1.728v13.305ZM84.017 223.737a2.648 2.648 0 0 0 1.967.827c.771 0 1.42-.276 1.947-.827.54-.563.809-1.341.809-2.334 0-.98-.27-1.746-.809-2.297a2.563 2.563 0 0 0-1.947-.845 2.62 2.62 0 0 0-1.967.845c-.527.551-.79 1.317-.79 2.297 0 .993.263 1.771.79 2.334Zm-1.286-5.678c.857-.895 1.942-1.342 3.253-1.342 1.31 0 2.389.447 3.234 1.342.857.882 1.286 1.997 1.286 3.344 0 1.36-.422 2.487-1.268 3.382-.845.882-1.93 1.323-3.252 1.323-1.324 0-2.408-.441-3.253-1.323-.846-.895-1.268-2.022-1.268-3.382 0-1.347.422-2.462 1.268-3.344ZM76.255 218.316c-.747 0-1.384.269-1.911.808-.515.54-.772 1.299-.772 2.279 0 .968.257 1.728.772 2.279.527.551 1.17.827 1.93.827.734 0 1.292-.184 1.672-.551.392-.368.655-.791.79-1.268l1.525.661c-.245.735-.71 1.378-1.396 1.93-.674.551-1.538.827-2.592.827-1.286 0-2.352-.447-3.197-1.342-.846-.894-1.268-2.015-1.268-3.363 0-1.372.422-2.493 1.268-3.363.845-.882 1.905-1.323 3.179-1.323 1.078 0 1.948.276 2.61.827.673.551 1.114 1.213 1.323 1.985l-1.562.661a2.796 2.796 0 0 0-.772-1.323c-.38-.367-.913-.551-1.599-.551Z" fill="#10B981"/><path fill-rule="evenodd" clip-rule="evenodd" d="M66.255 216.589c.26.261.26.684 0 .945l-5.36 5.36a.668.668 0 0 1-.945 0l-2.436-2.437a.668.668 0 1 1 .945-.945l1.963 1.964 4.888-4.887a.668.668 0 0 1 .945 0Z" fill="#22C55E"/><path d="m125.433 254.711 1.673-.386c.061.624.312 1.139.753 1.543.441.417.992.625 1.654.625 1.801 0 2.701-.956 2.701-2.867v-1.268c-.22.429-.569.778-1.047 1.048-.466.269-1.017.404-1.654.404-1.176 0-2.15-.398-2.922-1.194-.76-.809-1.139-1.838-1.139-3.088 0-1.213.379-2.229 1.139-3.05.76-.833 1.734-1.25 2.922-1.25 1.348 0 2.254.466 2.72 1.397v-1.232h1.709v8.178a5.4 5.4 0 0 1-.239 1.636 4.179 4.179 0 0 1-.717 1.415c-.331.429-.796.765-1.397 1.01-.588.245-1.28.368-2.076.368-1.09 0-2.015-.312-2.775-.937-.76-.613-1.195-1.397-1.305-2.352Zm4.337-2.353c.748 0 1.354-.257 1.819-.772.466-.526.699-1.212.699-2.058 0-.845-.233-1.525-.699-2.04-.465-.526-1.071-.79-1.819-.79-.759 0-1.378.257-1.856.772-.465.515-.698 1.201-.698 2.058 0 .87.226 1.562.68 2.077.465.502 1.09.753 1.874.753ZM117.485 249.124v5.109h-1.728v-8.84h1.691v1.268c.588-1.016 1.495-1.525 2.72-1.525 1.017 0 1.795.325 2.334.974.551.649.827 1.489.827 2.518v5.605h-1.728v-5.311c0-1.483-.686-2.224-2.058-2.224-.649 0-1.158.233-1.525.698-.356.454-.533 1.03-.533 1.728ZM112.818 254.233h-1.709v-8.84h1.709v8.84Zm-1.745-11.302a1.235 1.235 0 0 1-.35-.882c0-.343.117-.637.35-.882.245-.245.539-.368.882-.368.343 0 .637.123.882.368.245.233.367.527.367.882 0 .343-.122.637-.367.882a1.234 1.234 0 0 1-.882.349c-.343 0-.637-.116-.882-.349ZM105.077 246.717c-.748 0-1.385.269-1.911.808-.515.539-.772 1.299-.772 2.279 0 .968.257 1.727.772 2.279.526.551 1.17.827 1.929.827.735 0 1.293-.184 1.672-.552a2.74 2.74 0 0 0 .791-1.268l1.525.662c-.245.735-.711 1.378-1.397 1.929-.674.552-1.537.827-2.591.827-1.286 0-2.352-.447-3.197-1.341-.846-.894-1.268-2.015-1.268-3.363 0-1.372.422-2.493 1.268-3.363.845-.882 1.905-1.323 3.179-1.323 1.078 0 1.948.275 2.609.827.674.551 1.115 1.213 1.323 1.984l-1.562.662a2.785 2.785 0 0 0-.771-1.323c-.38-.368-.913-.551-1.599-.551ZM91.194 251.862c0-.759.245-1.366.735-1.819.49-.466 1.14-.754 1.948-.864l2.39-.349c.452-.061.68-.282.68-.662 0-.465-.16-.845-.479-1.139-.318-.294-.796-.441-1.433-.441-.588 0-1.054.165-1.397.496-.343.319-.545.747-.606 1.286l-1.654-.385c.086-.846.472-1.532 1.158-2.059.686-.539 1.507-.808 2.462-.808 1.25 0 2.175.306 2.775.919.6.6.9 1.372.9 2.315v4.429c0 .527.037 1.011.11 1.452h-1.69a7.28 7.28 0 0 1-.092-1.195c-.245.392-.606.735-1.084 1.029-.466.294-1.054.441-1.764.441-.87 0-1.58-.257-2.132-.771-.551-.527-.827-1.152-.827-1.875Zm3.198 1.195c.772 0 1.39-.209 1.856-.625.465-.417.698-1.078.698-1.985v-.404l-2.701.404c-.392.061-.705.202-.938.423-.232.22-.349.52-.349.9 0 .343.129.643.386.901.27.257.619.386 1.048.386ZM82.561 257.724h-1.71v-12.331h1.673v1.379c.257-.466.643-.846 1.158-1.14.514-.294 1.115-.441 1.8-.441 1.275 0 2.267.435 2.978 1.305.723.87 1.084 1.972 1.084 3.308 0 1.348-.373 2.462-1.12 3.344-.736.883-1.734 1.324-2.996 1.324-.65 0-1.225-.135-1.728-.405-.502-.269-.882-.612-1.139-1.029v4.686Zm5.219-7.92c0-.894-.239-1.63-.717-2.205-.465-.588-1.096-.882-1.892-.882-.785 0-1.422.294-1.912.882-.478.575-.716 1.311-.716 2.205 0 .919.238 1.672.716 2.26.49.576 1.127.864 1.912.864.784 0 1.414-.288 1.892-.864.478-.588.717-1.341.717-2.26ZM71.716 251.936l1.562-.552c.061.478.27.876.625 1.195.355.306.833.459 1.433.459.466 0 .833-.11 1.103-.331.27-.232.404-.514.404-.845 0-.588-.38-.968-1.14-1.139l-1.506-.331c-.686-.147-1.225-.441-1.617-.882-.392-.441-.588-.974-.588-1.599 0-.76.306-1.415.919-1.966.624-.552 1.366-.827 2.223-.827.564 0 1.066.086 1.507.257.441.159.784.374 1.03.643.244.27.428.521.55.754.123.232.215.471.276.716l-1.525.57a1.691 1.691 0 0 0-.129-.423 2.087 2.087 0 0 0-.294-.477 1.2 1.2 0 0 0-.551-.405 2.093 2.093 0 0 0-.864-.165c-.429 0-.784.116-1.066.349-.27.233-.404.509-.404.827 0 .564.337.919 1.01 1.066l1.434.312c.784.172 1.385.49 1.801.956.429.453.643 1.011.643 1.672 0 .699-.288 1.329-.863 1.893-.564.564-1.354.845-2.371.845-1.09 0-1.942-.269-2.555-.808-.612-.552-.961-1.14-1.047-1.764Z" fill="#10B981"/><path fill-rule="evenodd" clip-rule="evenodd" d="M66.255 244.989c.26.261.26.684 0 .945l-5.36 5.36a.668.668 0 0 1-.945 0l-2.436-2.436a.668.668 0 1 1 .945-.945l1.963 1.964 4.888-4.888a.668.668 0 0 1 .945 0Z" fill="#22C55E"/></svg>